<?xml version="1.0" encoding="UTF-8"?>
<!DOCTYPE svg PUBLIC "-//W3C//DTD SVG 1.1//EN" "http://www.w3.org/Graphics/SVG/1.1/DTD/svg11.dtd">
<!-- Creator: CorelDRAW X8 -->
<svg xmlns="http://www.w3.org/2000/svg" xml:space="preserve" width="15.5222mm" height="15.5222mm" version="1.1" style="shape-rendering:geometricPrecision; text-rendering:geometricPrecision; image-rendering:optimizeQuality; fill-rule:evenodd; clip-rule:evenodd"
viewBox="0 0 1552 1552"
 xmlns:xlink="http://www.w3.org/1999/xlink">
 <defs>
  <style type="text/css">
   <![CDATA[
    .str0 {stroke:black;stroke-width:7.62}
    .fil0 {fill:#FDFEFE}
   ]]>
  </style>
 </defs>
 <g id="Capa_x0020_1">
  <metadata id="CorelCorpID_0Corel-Layer"/>
  <path class="fil0 str0" d="M172 547l-98 647c271,1 226,26 243,-94l44 -290c26,14 7,-6 27,25l159 359 128 -3c25,-29 71,-146 91,-191 29,-65 57,-136 90,-193 20,27 61,331 65,388l231 0c-11,-110 -81,-436 -70,-511 -21,-27 -50,-268 -53,-294l-255 0 -154 405c-1,-2 -3,3 -5,5 -27,-29 -143,-350 -162,-410l-250 2c-21,39 -17,110 -31,155z"/>
  <path class="fil0 str0" d="M1222 616l43 284c46,6 101,10 144,-3l73 -452 4 -55 -297 1 33 225z"/>
  <path class="fil0 str0" d="M1312 992c-159,42 -87,266 57,224 146,-42 87,-263 -57,-224z"/>
 </g>
</svg>
