<?xml version="1.0" encoding="UTF-8"?>
<!DOCTYPE svg PUBLIC "-//W3C//DTD SVG 1.1//EN" "http://www.w3.org/Graphics/SVG/1.1/DTD/svg11.dtd">
<!-- Creator: CorelDRAW X8 -->
<svg xmlns="http://www.w3.org/2000/svg" xml:space="preserve" width="68.4388mm" height="71.9666mm" version="1.1" style="shape-rendering:geometricPrecision; text-rendering:geometricPrecision; image-rendering:optimizeQuality; fill-rule:evenodd; clip-rule:evenodd"
viewBox="0 0 6844 7197"
 xmlns:xlink="http://www.w3.org/1999/xlink">
 <defs>
  <style type="text/css">
   <![CDATA[
    .str0 {stroke:#AC4040;stroke-width:7.62}
    .fil0 {fill:#990000}
   ]]>
  </style>
 </defs>
 <g id="Capa_x0020_1">
  <metadata id="CorelCorpID_0Corel-Layer"/>
  <g id="_1100018016">
   <path class="fil0" d="M518 1166c-47,3 -65,31 -115,6 -49,-25 -36,-33 -104,-17 -7,38 0,25 0,61 -6,97 89,62 152,95l5 100c106,5 220,3 327,2 366,-3 319,32 318,-105 58,0 73,7 106,-16 63,-46 61,-78 52,-199 -7,-87 -7,-79 -47,-138 -24,-37 -14,-116 -14,-171 -53,-12 -55,-23 -119,-21l-2 -2 -606 4c39,11 103,39 135,42 59,6 124,-10 181,5l1 96 113 0c1,-31 -5,-82 7,-94 20,-20 146,-8 181,-6 20,0 40,-1 60,0 13,43 5,383 5,456l-253 0 1 -105 -114 -2 0 107 -271 -1 1 -97z"/>
   <path class="fil0" d="M642 287c6,-34 21,-34 52,-51 24,-14 45,-27 80,-28 62,-1 129,35 136,81 -42,-17 -71,-51 -135,-50 -60,1 -97,44 -133,48zm245 248c-3,-71 5,-81 38,-125 35,-48 3,-64 7,-123 5,-65 16,-91 -31,-121 -33,-21 -70,-46 -119,-47 -41,0 -85,30 -120,44 -58,25 -46,50 -40,122 4,58 -25,83 12,131 33,43 33,63 32,124 -66,22 -82,47 -136,74 -58,29 -86,38 -117,90l324 1c-13,-62 -30,-63 -44,-102 90,24 86,28 177,-3l-54 102c66,6 278,15 327,-5 -9,-19 3,-4 -14,-23 -9,-10 3,1 -14,-11 -7,-5 -19,-11 -31,-18l-197 -110z"/>
   <path class="fil0" d="M299 1100l8 19c32,-25 73,-5 99,10 46,26 64,4 112,-6l-3 -310 -158 -48c-3,58 13,144 -15,188 -28,47 -56,72 -43,147z"/>
   <path class="fil0" d="M299 1216c0,-36 -7,-23 0,-61 68,-16 55,-8 104,17 50,25 68,-3 115,-6l0 -43c-48,10 -66,32 -112,6 -26,-15 -67,-35 -99,-10l-8 -19 -8 26c-7,44 -4,71 8,90z"/>
   <path class="fil0" d="M642 287c36,-4 73,-47 133,-48 64,-1 93,33 135,50 -7,-46 -74,-82 -136,-81 -35,1 -56,14 -80,28 -31,17 -46,17 -52,51z"/>
  </g>
  <g id="_1100016512">
   <path class="fil0" d="M3400 2284c130,-106 70,-31 214,-51 75,-11 148,-49 204,-80 88,-48 100,-57 171,-111 26,-20 54,-37 85,-61 15,-12 24,-22 41,-32 325,-183 98,-286 -33,-244 -72,24 -124,65 -186,98 -71,38 -109,94 -165,120 39,36 66,7 100,34 -65,32 -30,29 -127,16 -49,-6 -96,-14 -143,-20 -6,-14 -4,-32 -18,-46 -11,-12 -27,-14 -43,-9 -76,26 61,64 -278,15 -101,-14 -102,-7 -186,25 -55,20 -118,37 -156,72 35,25 233,73 292,83 56,11 250,57 287,79l-34 34c-13,11 -21,19 -33,28 -69,-25 -127,-109 -204,-55 0,38 16,148 42,182l42 -1 -38 -155 166 79z"/>
   <path class="fil0" d="M4139 2137c0,-3 0,-16 0,-19l0 -12c0,-16 2,-8 -2,-25 -65,-24 -4,9 -99,12 -51,2 -112,69 -156,100 -26,17 -55,34 -78,52 34,16 225,38 282,49 87,17 215,53 243,-41 -18,-40 -145,-96 -190,-116z"/>
   <path class="fil0" d="M2954 2439c75,18 150,31 225,51 171,44 132,36 200,-15 105,-79 172,-118 282,-204l37 -27c-179,17 -245,165 -323,166 -7,0 -66,-19 -104,-20 -106,-5 -265,-16 -317,49z"/>
   <path class="fil0" d="M3481 2474c-33,15 -52,32 -81,54l137 11c-6,-47 -25,-42 -56,-65z"/>
  </g>
  <g id="_1100010848">
   <path class="fil0" d="M4219 917c-23,142 -260,140 -285,-8 33,27 71,55 137,57 80,2 101,-22 148,-49zm12 -279c-24,-10 -13,-6 -16,-16 -115,-59 -270,-49 -355,92 -80,133 -15,280 81,341 219,139 503,-106 350,-349 -21,-34 -44,-46 -60,-68z"/>
   <path class="fil0" d="M4283 584c-13,24 -28,40 -52,54 16,22 39,34 60,68 153,243 -131,488 -350,349 -96,-61 -161,-208 -81,-341 85,-141 240,-151 355,-92 6,-35 3,-46 33,-58 -14,7 -8,6 -8,-12 -117,-72 -250,-57 -367,30 -34,26 -57,39 -81,81 -41,73 -56,170 -32,267 27,110 58,137 134,190 174,123 361,36 457,-77 71,-84 106,-349 -68,-459z"/>
   <polygon class="fil0" points="3327,1077 3507,1077 3507,294 3324,294 "/>
   <path class="fil0" d="M3576 1071c23,10 29,2 37,2l23 2c11,1 13,2 26,2l0 -49 0 -734 -88 0 2 777z"/>
   <path class="fil0" d="M4169 440c27,14 55,18 90,39 27,15 55,37 80,44l4 -229 -173 1 -1 145z"/>
   <path class="fil0" d="M4384 1078c-44,81 -29,39 -76,89 41,26 53,45 87,82 107,117 146,34 135,-22 -7,-37 -124,-139 -146,-149z"/>
   <polygon class="fil0" points="3959,448 3959,294 3837,295 3838,514 "/>
   <path class="fil0" d="M3370 1303c-27,-35 -34,-121 22,-136 26,19 30,39 27,82 -3,43 -11,62 -49,54zm83 -22c15,-44 4,-107 -27,-131 -41,-33 -93,-5 -104,38 -36,156 93,203 131,93z"/>
   <path class="fil0" d="M3720 1307c-22,-39 -32,-114 12,-140 36,10 36,32 35,74 -1,52 0,66 -47,66zm-57 -58c7,128 145,124 138,-23 -5,-130 -147,-122 -138,23z"/>
   <path class="fil0" d="M3729 632c2,-2 4,-4 5,-5 29,-23 35,-27 39,-57 4,-30 8,-252 -9,-275l-35 -1 0 338z"/>
   <path class="fil0" d="M3540 1181c9,-8 -35,-4 37,-9 22,-1 19,4 41,-4l0 -24c-25,-11 -70,-5 -102,-5l-15 95c35,-2 55,1 82,11l-1 43c-58,43 -85,-14 -91,34 11,10 9,12 31,15 36,6 89,-4 99,-48 18,-82 -58,-83 -61,-85 -25,-11 -15,7 -20,-23z"/>
   <path class="fil0" d="M4219 917c-47,27 -68,51 -148,49 -66,-2 -104,-30 -137,-57 25,148 262,150 285,8z"/>
   <polygon class="fil0" points="4025,444 4102,437 4102,295 4027,294 "/>
   <path class="fil0" d="M3370 1303c38,8 46,-11 49,-54 3,-43 -1,-63 -27,-82 -56,15 -49,101 -22,136z"/>
   <path class="fil0" d="M3720 1307c47,0 46,-14 47,-66 1,-42 1,-64 -35,-74 -44,26 -34,101 -12,140z"/>
   <path class="fil0" d="M4248 564c-30,12 -27,23 -33,58 3,10 -8,6 16,16 24,-14 39,-30 52,-54 -2,-2 -12,-12 -16,-14 -20,-12 7,-1 -19,-6 3,-14 6,-10 -8,-12 0,18 -6,19 8,12z"/>
  </g>
  <g id="_1100007904">
   <path class="fil0" d="M1956 1232c-74,-26 -164,-186 -189,-287 39,4 126,72 143,94 24,32 44,144 46,193zm592 -436c24,-42 36,-68 109,-52 -6,5 -30,37 -33,55 -6,37 42,201 49,234 -22,-11 -17,-6 -35,-27 -78,-86 -46,-83 -64,-104 -55,-31 -50,2 -97,-49 -30,-32 -50,-28 -55,-88 91,3 9,27 126,31zm-487 -461c-12,34 -108,119 -136,146 -27,26 -45,47 -73,73 -25,25 -41,53 -90,48l-9 5 -6 19c-37,56 -51,233 -36,313 24,123 67,216 153,292 21,19 23,26 46,43 200,152 469,156 673,-13 54,-45 85,-83 120,-147 12,-22 23,-35 33,-56 86,-170 35,-446 -75,-541 -20,24 -21,57 -96,156 -16,-22 -33,-43 -51,-68 -17,-25 -22,-52 -37,-72 -16,28 -41,42 -46,79 -9,64 7,37 -33,84 -18,21 -44,41 -50,70 -10,53 -7,49 -49,73 -68,39 -68,96 -33,160 34,63 103,29 177,65 21,181 -29,70 -34,232 -119,39 -196,45 -319,7 17,-42 97,-110 95,-149 -1,-27 -57,-112 -107,-139l-39 59c-37,-46 -134,-207 -148,-275 -30,-137 63,-208 196,-189 -21,-58 -70,-91 -32,-160 94,25 -35,127 161,127 27,-56 -18,-29 64,-64 21,-9 72,-33 85,-43l1 -77 47 -8 -10 -52c-132,-29 -210,-26 -342,2z"/>
   <path class="fil0" d="M2014 742c8,-19 54,-38 57,34 -27,11 -28,17 -53,2 -4,-8 -7,12 -6,-21 0,-8 -1,-8 2,-15zm25 241c33,-35 84,-133 101,-182 72,-202 -275,-202 -197,3 24,62 60,130 96,179z"/>
   <path class="fil0" d="M2532 336c33,-15 44,-17 68,8 -2,24 -7,27 -20,40 -44,4 -49,-5 -48,-48zm30 251c41,-31 76,-124 97,-180 77,-209 -265,-213 -188,-3 31,82 53,117 91,183z"/>
   <path class="fil0" d="M2548 796c-117,-4 -35,-28 -126,-31 5,60 25,56 55,88 47,51 42,18 97,49 18,21 -14,18 64,104 18,21 13,16 35,27 -7,-33 -55,-197 -49,-234 3,-18 27,-50 33,-55 -73,-16 -85,10 -109,52z"/>
   <path class="fil0" d="M1956 1232c-2,-49 -22,-161 -46,-193 -17,-22 -104,-90 -143,-94 25,101 115,261 189,287z"/>
   <path class="fil0" d="M1762 602c-12,-5 -10,-8 -9,5l-6 19 6 -19 9 -5c49,5 65,-23 90,-48 28,-26 46,-47 73,-73 28,-27 124,-112 136,-146 -55,15 -149,75 -177,106 -37,40 -109,89 -122,161z"/>
   <path class="fil0" d="M2532 336c-1,43 4,52 48,48 13,-13 18,-16 20,-40 -24,-25 -35,-23 -68,-8z"/>
   <path class="fil0" d="M2018 778c25,15 26,9 53,-2 -3,-72 -49,-53 -57,-34 -3,7 -2,7 -2,15 -1,33 2,13 6,21z"/>
  </g>
  <g id="_1100005312">
   <path class="fil0" d="M1074 6457c-11,-24 -519,-504 -537,-544 -150,-6 -189,-28 -188,122 1,96 4,201 -1,296 41,9 50,-4 67,36 -16,35 -23,28 -66,37 0,136 11,158 150,161 6,-9 4,-6 10,-19l14 -42c42,-119 175,-114 239,-44 32,34 33,51 45,85l7 19 386 1c1,-83 66,-155 148,-155 113,1 125,92 154,153 107,5 139,-55 134,-160l-78 -12c-19,-63 19,-57 76,-55 4,-112 -77,-128 -213,-172 -56,-18 -67,-55 -107,-87 -114,-93 -57,-166 -402,-165 -126,0 -252,-2 -380,2l542 543zm-81 -194c8,-7 95,-23 72,24 -31,17 -104,7 -72,-24zm-21 -204c1,-44 -10,-59 28,-67 104,-23 205,91 264,153 47,49 42,67 -37,67 -190,0 -255,22 -255,-153z"/>
   <path class="fil0" d="M972 6059c0,175 65,153 255,153 79,0 84,-18 37,-67 -59,-62 -160,-176 -264,-153 -38,8 -27,23 -28,67z"/>
   <path class="fil0" d="M631 6528l54 1c5,23 4,41 -4,62l-45 0c-14,-24 -18,-30 -5,-63zm-91 41c7,141 238,132 228,-16 -3,-58 -57,-110 -123,-105 -59,5 -108,56 -105,121z"/>
   <path class="fil0" d="M1332 6592c-43,-38 -28,-73 43,-64 15,33 9,68 -43,64zm-94 -15c17,138 238,128 219,-32 -19,-157 -236,-109 -219,32z"/>
   <path class="fil0" d="M1332 6592c52,4 58,-31 43,-64 -71,-9 -86,26 -43,64z"/>
   <path class="fil0" d="M636 6591l45 0c8,-21 9,-39 4,-62l-54 -1c-13,33 -9,39 5,63z"/>
   <path class="fil0" d="M1065 6287c23,-47 -64,-31 -72,-24 -32,31 41,41 72,24z"/>
  </g>
  <g id="_1103524224">
   <path class="fil0" d="M1518 5207l0 128 230 -1 -2 -898 -228 54c-1,27 -1,55 -1,82 2,78 16,75 -108,93l-1 -145 -184 36 0 779 182 -3 3 -119 109 -6z"/>
   <path class="fil0" d="M2205 4883c1,2 2,3 2,7l10 102c0,135 -34,78 49,161 16,16 30,38 54,54 10,-18 1,-7 20,-13l8 8 -7 13c-1,2 -4,5 -5,6 -1,2 -4,4 -6,6l-2 -3c2,1 5,1 6,4 0,3 4,3 5,4 34,33 4,21 40,20 57,-86 51,-94 57,-217 -35,-28 -72,-71 -63,-122 -25,-31 -29,-10 -51,-64 -14,0 -11,4 -8,-11 -28,3 -77,-1 -97,3 -18,3 -24,5 -28,18 -7,24 8,19 16,24z"/>
   <path class="fil0" d="M2201 5295l4 -412 -65 2c-8,31 -58,80 -102,89 0,91 -14,138 26,212 29,54 64,85 137,109z"/>
   <path class="fil0" d="M2107 4847c4,20 9,16 -10,16 -60,42 15,11 -106,72 -4,42 -6,154 -1,194 22,176 236,273 308,186 2,-2 5,-3 7,-4l17 -13c13,-14 5,-4 13,-28l-26 -12c-2,-3 -5,-2 -8,-3l-21 20c-22,16 29,18 -29,12l10 -46c6,-13 -19,-21 16,-10 -5,-28 -51,-45 -62,-77 -6,45 1,99 -4,121l-10 20c-73,-24 -108,-55 -137,-109 -40,-74 -26,-121 -26,-212 44,-9 94,-58 102,-89l11 -47 -40 0 -4 9z"/>
   <path class="fil0" d="M2236 4747c46,-26 14,-24 57,-42l3 -163c-81,-20 -171,-33 -255,-53 -59,-15 -180,-48 -234,-51l1 51c130,42 314,47 430,93l-2 165z"/>
   <path class="fil0" d="M2340 5194c-19,6 -10,-5 -20,13 -24,-16 -38,-38 -54,-54 -83,-83 -49,-26 -49,-161l-10 -102c0,-4 -1,-5 -2,-7 -8,-5 -23,0 -16,-24 4,-13 10,-15 28,-18 20,-4 69,0 97,-3 -3,15 -6,11 8,11 0,-14 4,-12 -8,-11 -2,-1 -4,-2 -6,-2 -22,-7 -173,-12 -197,2l-4 9 -10 16c19,0 14,4 10,-16l4 -9 40 0 -11 47 65 -2 -4 412 10 -20c5,-22 -2,-76 4,-121 11,32 57,49 62,77 -35,-11 -10,-3 -16,10l-10 46c58,6 7,4 29,-12 -27,3 -14,2 -19,-34 30,-3 15,1 16,-10 19,-3 9,4 26,-7 25,-15 8,-6 17,-17 13,-3 9,1 20,-13zm8 8c-25,16 -10,5 -18,25 2,-2 5,-4 6,-6 1,-1 4,-4 5,-6l7 -13z"/>
   <path class="fil0" d="M2049 5334c-7,-10 -6,-6 -17,-19 -8,-10 -15,-21 -21,-29l-204 2 3 47 239 -1z"/>
   <path class="fil0" d="M2436 5035l-2 -101 -61 -21c-9,51 28,94 63,122z"/>
   <path class="fil0" d="M2236 4747l3 36 56 -5 -2 -73c-43,18 -11,16 -57,42z"/>
   <path class="fil0" d="M2320 5207c-9,11 8,2 -17,17 -17,11 -7,4 -26,7 -1,11 14,7 -16,10 5,36 -8,37 19,34l21 -20c15,-12 16,-12 27,-31l2 3c8,-20 -7,-9 18,-25l-8 -8c-11,14 -7,10 -20,13z"/>
   <path class="fil0" d="M2301 5255c3,1 6,0 8,3l26 12c-8,24 0,14 -13,28l-17 13c-2,1 -5,2 -7,4 27,-9 28,-11 50,-31l28 -28c0,-2 2,-2 3,-4 -36,1 -6,13 -40,-20 -1,-1 -5,-1 -5,-4 -1,-3 -4,-3 -6,-4 -11,19 -12,19 -27,31z"/>
  </g>
  <g id="_1103520000">
   <path class="fil0" d="M290 3188l43 37c15,20 16,32 20,61l30 5 -1 -81c-24,-14 -85,-56 -53,-102 6,-9 81,-81 90,-87l24 22 -38 53c26,0 256,-11 275,7 45,13 44,43 59,97 30,113 77,225 96,346l-131 1c-2,16 -1,40 -11,54l-34 1c-4,-85 24,-172 -64,-185 -69,-11 -172,4 -248,-4 -8,44 -2,15 -22,44 -28,-12 -31,-24 -52,-43l-37 -1c11,36 1,5 16,31 43,72 -9,82 -82,160l-21 -6 7 136c60,-44 120,-42 195,-1 60,33 64,109 64,180l238 1c-4,-112 -10,-161 69,-220 81,-60 149,-43 228,-7 1,-141 -84,-341 -111,-466 -52,-241 -79,-218 -356,-219 -143,0 -199,16 -193,186z"/>
   <path class="fil0" d="M1145 3794c-23,-65 -42,-160 -64,-232 -53,-163 -84,-308 -128,-455 -25,-81 -22,-179 -116,-148 -14,75 78,325 101,412 37,136 75,270 115,405 13,45 10,56 44,85 32,26 57,31 104,21 383,-82 270,-170 153,-139 -56,15 -156,58 -209,51z"/>
   <path class="fil0" d="M824 3785c69,-20 124,94 32,124 -75,24 -130,-95 -32,-124zm-139 99c32,166 324,172 300,-65 -18,-182 -342,-152 -300,65z"/>
   <path class="fil0" d="M289 3876c-42,78 -118,11 -53,-44 36,1 45,11 53,44zm85 40c64,-153 -183,-263 -249,-91 -59,152 176,266 249,91z"/>
   <path class="fil0" d="M824 3785c-98,29 -43,148 32,124 92,-30 37,-144 -32,-124z"/>
   <path class="fil0" d="M150 3473c0,0 5,-26 38,-15 66,22 -17,89 -38,106l-1 34 21 6c73,-78 125,-88 82,-160 -15,-26 -5,5 -16,-31 -47,0 -76,17 -86,60z"/>
   <path class="fil0" d="M382 3210c-1,-35 -1,-81 11,-104 31,-10 241,-9 287,-3 -19,-18 -249,-7 -275,-7l38 -53 -24 -22c-9,6 -84,78 -90,87 -32,46 29,88 53,102z"/>
   <path class="fil0" d="M383 3362l-87 -3c14,-30 4,-13 34,-33l52 18 1 -53 -30 -5c-4,-29 -5,-41 -20,-61l-43 -37 0 180 93 -6z"/>
   <path class="fil0" d="M289 3876c-8,-33 -17,-43 -53,-44 -65,55 11,122 53,44z"/>
   <path class="fil0" d="M150 3473l0 91c21,-17 104,-84 38,-106 -33,-11 -38,15 -38,15z"/>
   <path class="fil0" d="M383 3362l-1 -18 -52 -18c-30,20 -20,3 -34,33l87 3z"/>
   <path class="fil0" d="M347 3413l-74 1c21,19 24,31 52,43 20,-29 14,0 22,-44z"/>
  </g>
  <g id="_1103512672">
   <path class="fil0 str0" d="M2263 3592c16,10 17,-1 13,8 -2,-42 15,-48 17,-54 0,-4 3,-4 4,-6 -16,-35 -25,-22 -40,-50l34 1 -17 -23c-1,-2 -2,-3 -3,-5 -5,-10 -6,-19 -8,-34l-31 -1 1 -145 69 28c25,-2 14,3 41,-29l45 -43c24,-25 49,-56 76,-73 -142,-23 -616,21 -699,-11l-115 2 2 60 444 0 -90 58 2 484 61 1 1 -419 78 -34 3 453 80 0 4 -197c6,11 20,24 28,29z"/>
   <path class="fil0" d="M2565 3158l-800 -3c83,32 557,-12 699,11 -27,17 -52,48 -76,73l-45 43c-27,32 -16,27 -41,29 22,15 28,17 54,19 -4,14 -5,8 13,10 0,-19 4,-16 -13,-10 20,-19 13,-22 43,-34l16 9c-5,-14 8,-10 -16,-9 -6,-5 -7,-6 -14,-12l275 -5 0 122c-23,-5 -119,-51 -156,-56 2,-15 4,-9 -14,-10 0,20 -5,16 14,10 -6,26 -4,43 -31,35 17,17 58,31 83,49l-77 0c4,25 9,45 15,63l140 -1c-23,35 -42,26 -62,79l-10 4 -3 13c-14,0 -10,-3 -7,11 -13,-2 -8,-4 -12,10 18,0 16,6 12,-10 16,3 11,5 7,-11l3 -13 10 -4 60 15c17,-11 13,-6 24,-22l3 18c36,-13 62,-26 84,-44l0 -206c-24,-19 -15,-20 -41,-32 -20,-9 -22,-4 -42,-20 -8,-11 1,-14 -56,-17l-189 -1c33,-9 81,-78 99,-88 21,-13 38,-10 51,-15 1,-2 1,-5 2,-7 0,-1 1,-4 2,-6 28,-113 87,-6 162,-17 40,-5 63,-33 105,-3 18,12 34,42 67,66l0 -59c-45,-43 -69,-71 -159,-46 -80,21 -79,-56 -173,-20l6 -43c14,4 10,6 10,-10 -15,2 -13,-3 -10,10 -19,9 -7,-20 -14,27 -1,11 1,21 1,32 1,28 -2,48 1,76z"/>
   <path class="fil0" d="M2698 3817c-11,31 -70,88 -119,87 -37,-1 -50,-16 -68,-34 -17,-16 -36,-30 -43,-53l-510 -1 -1 112 815 -2 4 -109 -78 0z"/>
   <path class="fil0" d="M2565 3158c-13,5 -30,2 -51,15 -18,10 -66,79 -99,88l189 1c57,3 48,6 56,17 20,16 22,11 42,20 26,12 17,13 41,32l0 -111c49,-6 114,-10 161,3l-1 -32c-33,-24 -49,-54 -67,-66 -42,-30 -65,-2 -105,3 -75,11 -134,-96 -162,17 -1,2 -2,5 -2,6 -1,2 -1,5 -2,7z"/>
   <path class="fil0" d="M1812 3343c18,-9 67,-8 88,-2 15,18 14,61 0,83l-85 -2c-13,-12 -16,-30 -10,-64 3,-18 -3,-9 7,-15zm-200 124l326 0 -1 -179c-117,-9 -219,14 -328,39l3 140z"/>
   <path class="fil0" d="M2297 3540c14,13 18,18 34,30 33,55 69,94 110,143 19,-13 31,-35 51,-54 17,-15 32,-42 48,-51 4,-14 -1,-12 12,-10 -3,-14 -7,-11 7,-11l3 -13 10 -4c20,-53 39,-44 62,-79l-140 1 -170 -1 -33 0 -34 -1c15,28 24,15 40,50z"/>
   <path class="fil0" d="M1765 3103c171,-1 92,2 178,-33 15,-6 32,-10 48,-16 63,-25 117,-71 176,-87l4 135 48 -1 0 -217c-179,58 -261,137 -400,182 -39,13 -49,31 -49,31 -1,-2 -4,4 -5,6z"/>
   <path class="fil0" d="M2587 3013c0,16 4,14 -10,10l-6 43c94,-36 93,41 173,20 90,-25 114,3 159,46l-3 -152c-98,-2 -247,-24 -313,33z"/>
   <path class="fil0" d="M2263 3429l40 -1 176 1 77 0c-25,-18 -66,-32 -83,-49 -27,-4 -90,-21 -104,-40 -18,-2 -17,4 -13,-10 -26,-2 -32,-4 -54,-19l-69 -28 -1 145 31 1z"/>
   <path class="fil0" d="M2562 3574l-3 13c4,16 9,14 -7,11 4,16 6,10 -12,10 -16,9 -31,36 -48,51 -20,19 -32,41 -51,54 -41,-49 -77,-88 -110,-143 -5,5 -20,-6 -16,36 2,27 47,61 66,80 18,18 27,29 47,48 24,21 40,25 76,12 9,-6 55,-68 67,-80 19,-19 17,-19 34,-40 21,-26 21,-14 27,-41l-60 -15 -10 4z"/>
   <path class="fil0" d="M2399 3296c24,-1 11,-5 16,9 23,1 56,16 75,30 18,1 16,-5 14,10 37,5 133,51 156,56l0 -122 -275 5c7,6 8,7 14,12z"/>
   <path class="fil0" d="M2324 3491l170 1c-6,-18 -11,-38 -15,-63l-176 -1c9,38 16,22 21,63z"/>
   <path class="fil0" d="M2263 3592c37,70 85,79 115,169 24,1 46,-1 74,0 27,1 42,10 52,-15 -36,13 -52,9 -76,-12 -20,-19 -29,-30 -47,-48 -19,-19 -64,-53 -66,-80 -4,-42 11,-31 16,-36 -16,-12 -20,-17 -34,-30 -1,2 -4,2 -4,6 -2,6 -19,12 -17,54 4,-9 3,2 -13,-8z"/>
   <path class="fil0" d="M2658 3690c-2,32 -4,41 6,69l79 6 -1 -153c-25,8 -16,-2 -50,37l-34 41z"/>
   <path class="fil0" d="M2698 3817l-46 -1c-44,72 -100,62 -137,-1l-47 2c7,23 26,37 43,53 18,18 31,33 68,34 49,1 108,-56 119,-87z"/>
   <path class="fil0" d="M2356 3330c17,-6 13,-9 13,10 14,19 77,36 104,40 27,8 25,-9 31,-35 -19,6 -14,10 -14,-10 -19,-14 -52,-29 -75,-30l-16 -9c-30,12 -23,15 -43,34z"/>
   <polygon class="fil0" points="1815,3422 1900,3424 1900,3341 1812,3343 "/>
   <path class="fil0" d="M2659 3581l-1 109 34 -41c34,-39 25,-29 50,-37l1 -75c-22,18 -48,31 -84,44z"/>
   <path class="fil0" d="M2652 3816l-137 -1c37,63 93,73 137,1z"/>
   <path class="fil0" d="M2291 3491l33 0c-5,-41 -12,-25 -21,-63l-40 1c2,15 3,24 8,34 1,2 2,3 3,5l17 23z"/>
   <path class="fil0" d="M1815 3422l-3 -79 88 -2 0 83c14,-22 15,-65 0,-83 -21,-6 -70,-7 -88,2 -10,6 -4,-3 -7,15 -6,34 -3,52 10,64z"/>
  </g>
  <g id="_1103509504">
   <path class="fil0" d="M3972 4549c20,176 4,442 4,628 0,162 34,179 -129,178l-615 1c-64,0 -93,10 -98,-57 -9,-118 -2,-687 9,-761 -25,11 -45,37 -65,57l115 -114c-26,22 -39,41 -50,57l10 -5c2,0 9,-3 11,-3 9,-2 18,-2 27,-2 20,-1 41,0 60,-1l15 -60c-194,7 -191,10 -199,168 -6,121 0,257 0,380 0,431 -63,400 367,400 86,0 498,14 560,-17 52,-27 50,-77 50,-140l0 -574c1,-92 -1,-68 -60,-130l41 42c17,13 -8,-3 19,13 -1,-106 -27,-141 -137,-141 15,29 15,24 38,46 -49,-48 -28,-45 -100,-46l13 60c25,1 72,4 94,-8 17,32 42,36 20,29z"/>
   <path class="fil0" d="M3533 4423c-26,-35 -20,-46 14,-68 27,4 24,5 42,22l-6 45 -50 1zm-83 -29c-87,12 -159,51 -145,150l499 0c1,-49 -26,-86 -46,-111 -25,-30 -73,-37 -115,-38 -3,-52 -39,-96 -95,-93 -87,3 -95,87 -98,92z"/>
   <path class="fil0" d="M3351 4955c16,-21 7,-6 25,-22 16,-13 11,-11 24,-25 21,-24 26,-24 45,-52 59,-87 70,-56 88,-109 -16,-13 -34,-26 -50,-38 -14,11 -118,138 -146,157 -23,-20 -34,-35 -70,-50l-32 54c17,23 88,67 116,85z"/>
   <path class="fil0" d="M3389 5173l-76 -2c-1,-2 -3,-7 -3,-6l-4 -74c33,-10 55,-8 90,-4 0,14 1,28 1,42l-8 44zm-120 41l166 1 0 -168 -167 4 1 163z"/>
   <polygon class="fil0" points="3575,4883 3858,4880 3857,4824 3572,4824 "/>
   <path class="fil0" d="M3831 5146c57,-9 -46,12 14,-3l13 -51 -288 1 1 54 260 -1z"/>
   <polygon class="fil0" points="3313,5171 3389,5173 3389,5092 3314,5093 "/>
   <path class="fil0" d="M3533 4423l50 -1 6 -45c-18,-17 -15,-18 -42,-22 -34,22 -40,33 -14,68z"/>
   <path class="fil0" d="M3313 5171l1 -78 75 -1 0 81 8 -44c0,-14 -1,-28 -1,-42 -35,-4 -57,-6 -90,4l4 74c0,-1 2,4 3,6z"/>
  </g>
  <g id="_1103507712">
   <path class="fil0" d="M1358 2562l88 5 -2 -58 -92 -10 -160 -6c-22,-79 27,-116 56,-154 18,-22 199,-187 115,-283 -48,-56 -111,3 -150,22l-19 -95c47,-23 103,-68 184,-47 66,16 108,61 113,133 16,210 -120,226 -155,327l162 4 -3 171 280 11 -1 -202 -217 -8c-6,-124 37,-147 80,-235 22,-44 75,-169 109,-210l142 -5 -1 354 59 19 -1 81 -59 10 0 198c49,5 139,-10 191,-15 116,-13 86,-3 130,-80 81,-4 178,24 136,-62 -97,-20 -247,12 -328,-15l3 -55c72,-23 387,9 422,-16 29,-21 17,-51 -22,-57 -23,-3 -79,0 -106,0 -68,0 -168,22 -139,-63 41,-15 194,11 147,-63 -51,-35 -223,-2 -291,-17 -69,-112 144,-47 169,-74 3,-4 30,-152 -37,-179 -67,-26 -334,-29 -411,-19 -34,4 -55,5 -74,41 -44,86 -16,63 -53,61 -14,-22 -13,-3 2,-38 11,-25 11,-10 16,-42 -123,-6 -344,-53 -437,16 -64,48 -88,51 -52,158 32,100 59,83 167,86 -27,61 -57,74 -91,119 -20,26 -79,91 -92,119 -22,48 -20,140 25,160 28,12 161,15 197,13z"/>
   <path class="fil0" d="M2108 1585l-9 4c9,39 0,3 11,27 22,48 -6,-26 9,17l-25 21c-32,-22 2,-27 -36,-17 5,17 7,11 -11,11 -35,25 -66,104 -55,167l65 6c-5,-104 42,-175 134,-197l1 203 149 1 -1 -67 -89 -3 2 -137c168,16 232,285 3,349l0 59c123,-20 129,-46 157,-87 22,-32 28,-32 44,-76 36,-103 -22,-223 -80,-266 -47,-35 -115,-53 -190,-42 -17,25 -20,23 -39,43l-14 -25 -26 9z"/>
   <polygon class="fil0" points="1660,2277 1776,2276 1776,2034 "/>
   <path class="fil0" d="M2108 1585l-9 4 -41 48 -11 11c18,0 16,6 11,-11 38,-10 4,-5 36,17l25 -21c-15,-43 13,31 -9,-17 -11,-24 -2,12 -11,-27l9 -4 26 -9 14 25c19,-20 22,-18 39,-43 -32,4 -54,9 -79,27z"/>
   <path class="fil0" d="M1358 2562c22,10 67,15 95,5l1 -60c-25,-6 -68,-9 -102,-8l92 10 2 58 -88 -5z"/>
  </g>
  <g id="_1103504832">
   <path class="fil0" d="M4329 3647c-69,-10 -96,-103 -35,-103 20,0 51,27 58,40 15,33 -4,50 -23,63zm144 73c38,-24 100,-103 135,-147 217,-275 -380,-141 -484,-112 -168,46 -99,16 -176,108 -32,38 -40,30 -97,40l-586 104c2,125 111,194 234,143 89,-38 103,2 165,10 94,13 101,-25 170,-25 47,0 50,15 83,23 113,29 139,-56 251,-8 47,21 307,17 376,9 34,-116 -29,-101 -71,-145z"/>
   <path class="fil0" d="M4034 3268l401 30c1,5 2,25 3,27l10 27c26,-4 43,14 28,-88 -55,-39 -198,-33 -281,-41 -130,-12 -155,-28 -278,15 -83,30 -160,52 -240,83 -264,101 -222,27 -220,301 110,-2 67,-14 74,-153 3,-44 -6,-31 32,-44l-1 181 85 -14c-5,-163 -18,-191 39,-203l0 196 75 -10 2 -219 38 -11 1 224 75 -7 2 -249 37 -11 1 218c23,-17 25,-41 45,-59 16,-15 52,-22 72,-30l0 -163z"/>
   <path class="fil0" d="M3745 3247c77,-17 56,-18 59,-43l-35 -10c-6,-1 -24,1 -30,1l0 -65c-113,-1 -39,-16 -99,-32l-140 0 -20 32c-85,-1 -124,1 -122,92l-84 0 0 185 64 2 0 234 62 -8c1,-327 22,-295 -62,-293l2 -64 74 0 2 -82 104 -2 23 -38 66 -2 31 41 89 0 13 39c0,1 1,8 1,6 0,-1 1,5 2,7z"/>
   <path class="fil0" d="M4329 3647c19,-13 38,-30 23,-63 -7,-13 -38,-40 -58,-40 -61,0 -34,93 35,103z"/>
   <polygon class="fil0" points="3465,3290 3511,3290 3512,3250 3463,3253 "/>
   <path class="fil0" d="M3586 3249l-37 1c0,51 -13,32 26,38 6,-9 4,-2 10,-20 2,-6 1,-11 1,-19z"/>
   <path class="fil0" d="M3636 3280c27,-2 32,-15 36,-20 -11,-8 18,-9 -24,-10 -47,-1 -16,3 -27,10l1 17c6,2 1,4 14,3z"/>
   <path class="fil0" d="M3586 3249c0,8 1,13 -1,19 -6,18 -4,11 -10,20 -39,-6 -26,13 -26,-38 -4,7 -5,3 -7,18 -3,14 0,12 2,25l46 -2c4,-26 5,-22 -4,-42z"/>
  </g>
  <g id="_1103502944">
   <path class="fil0" d="M2796 5875l451 93 -1 736 -505 0 -2 -887 -247 63 0 157 -115 23 -1 -155 -193 40 2 816 189 0 1 -127 117 -10 3 136c136,5 733,-17 804,5l3 -836c-5,-3 -488,-108 -508,-109l2 55z"/>
   <path class="fil0" d="M3101 6262l34 3 -3 -38c-13,1 -12,3 -26,0 -14,-3 -12,-4 -18,-9l-198 -19 1 33 210 30z"/>
   <path class="fil0" d="M2966 6152c1,-23 -1,-48 0,-70 3,-37 13,-36 14,-48 2,-15 -34,-43 -40,-52 -14,13 -27,25 -41,38l6 14c15,37 8,67 8,114l53 4z"/>
   <path class="fil0" d="M3039 6042c22,21 13,99 19,128l46 0c0,-99 -8,-94 25,-110 -17,-18 -36,-44 -57,-58l-33 40z"/>
   <path class="fil0" d="M3132 6227l3 38 -34 -3c6,3 3,4 20,6 25,3 -1,1 15,-3 1,-11 2,-6 1,-21 0,-14 -3,-13 -5,-17l-44 -9c6,5 4,6 18,9 14,3 13,1 26,0z"/>
  </g>
  <g id="_1103479520">
   <path class="fil0" d="M4141 6001l44 36c15,20 15,32 20,61l30 5 -1 -81c-25,-14 -86,-55 -53,-102 6,-9 81,-81 90,-87l24 22 -39 53c27,0 257,-11 276,7 44,13 44,43 58,97 30,113 78,225 97,347l-132 0c-1,16 -1,41 -10,54l-35 1c-4,-85 25,-171 -63,-185 -70,-11 -172,4 -248,-4 -9,44 -3,15 -22,44 -29,-12 -31,-24 -52,-43l-38 0c11,35 1,4 17,30 43,72 -10,83 -83,160l-20 -6 6 136c61,-44 120,-42 196,-1 60,33 64,109 64,181l237 0c-4,-111 -9,-161 70,-219 81,-60 148,-43 227,-7 2,-141 -84,-342 -111,-467 -52,-241 -79,-217 -355,-219 -143,0 -200,16 -194,187z"/>
   <path class="fil0" d="M4997 6607c-23,-65 -42,-161 -65,-233 -52,-163 -83,-307 -128,-454 -25,-82 -22,-180 -115,-149 -15,75 77,325 101,412 37,136 75,270 114,405 13,45 11,56 45,85 31,27 57,31 103,21 384,-81 271,-170 153,-139 -55,15 -156,59 -208,52z"/>
   <path class="fil0" d="M4676 6598c69,-21 124,93 31,123 -74,24 -129,-95 -31,-123zm-139 98c32,166 323,172 300,-64 -19,-183 -343,-153 -300,64z"/>
   <path class="fil0" d="M4140 6688c-42,78 -117,11 -53,-44 37,2 45,11 53,44zm85 41c65,-154 -182,-264 -249,-92 -59,152 176,266 249,92z"/>
   <path class="fil0" d="M4676 6598c-98,28 -43,147 31,123 93,-30 38,-144 -31,-123z"/>
   <path class="fil0" d="M4002 6285c0,0 4,-25 38,-14 66,21 -18,89 -38,105l-1 34 20 6c73,-77 126,-88 83,-160 -16,-26 -6,5 -17,-30 -46,-1 -75,17 -85,59z"/>
   <path class="fil0" d="M4234 6022c-1,-35 -1,-80 10,-104 32,-10 241,-8 288,-3 -19,-18 -249,-7 -276,-7l39 -53 -24 -22c-9,6 -84,78 -90,87 -33,47 28,88 53,102z"/>
   <path class="fil0" d="M4235 6175l-88 -4c15,-30 5,-13 34,-33l52 18 2 -53 -30 -5c-5,-29 -5,-41 -20,-61l-44 -36 0 179 94 -5z"/>
   <path class="fil0" d="M4140 6688c-8,-33 -16,-42 -53,-44 -64,55 11,122 53,44z"/>
   <path class="fil0" d="M4002 6285l0 91c20,-16 104,-84 38,-105 -34,-11 -38,14 -38,14z"/>
   <path class="fil0" d="M4235 6175l-2 -19 -52 -18c-29,20 -19,3 -34,33l88 4z"/>
   <path class="fil0" d="M4199 6225l-74 1c21,19 23,31 52,43 19,-29 13,0 22,-44z"/>
  </g>
  <g id="_1103480800">
   <path class="fil0" d="M6591 5980c19,176 4,442 4,628 0,162 33,179 -130,178l-614 0c-64,1 -93,11 -98,-56 -9,-118 -3,-687 8,-761 -24,11 -45,36 -64,57l115 -114c-26,22 -40,41 -51,57l11 -5c2,0 9,-3 11,-3 8,-2 17,-2 27,-2 20,-1 41,0 60,-1l14 -60c-194,7 -191,10 -198,168 -6,121 -1,257 -1,380 0,430 -63,400 368,400 85,0 498,14 560,-17 52,-27 50,-77 50,-140l0 -574c1,-92 -2,-68 -60,-130l41 42c16,13 -9,-3 19,13 -2,-106 -27,-141 -138,-141 15,29 16,24 39,46 -49,-48 -28,-45 -100,-46l12 60c25,0 72,4 94,-8 17,32 42,36 21,29z"/>
   <path class="fil0" d="M6151 5854c-26,-35 -20,-46 15,-68 27,4 24,5 42,22l-7 45 -50 1zm-82 -29c-87,12 -160,51 -146,150l500 0c1,-49 -26,-86 -47,-111 -25,-30 -72,-37 -115,-38 -3,-52 -38,-96 -95,-93 -87,3 -94,87 -97,92z"/>
   <path class="fil0" d="M5969 6386c17,-21 8,-6 26,-22 16,-14 11,-11 23,-25 22,-24 26,-24 45,-52 59,-87 71,-56 88,-110 -16,-13 -33,-25 -50,-37 -14,11 -117,138 -145,157 -23,-20 -35,-35 -71,-50l-31 54c16,23 88,67 115,85z"/>
   <path class="fil0" d="M6008 6603l-76 -2c-1,-1 -3,-6 -3,-5l-4 -74c33,-10 55,-8 89,-4 1,14 2,28 2,42l-8 43zm-121 42l167 1 0 -168 -168 4 1 163z"/>
   <polygon class="fil0" points="6194,6314 6476,6311 6476,6255 6190,6255 "/>
   <path class="fil0" d="M6449 6577c58,-9 -45,12 15,-4l13 -50 -288 1 1 54 259 -1z"/>
   <polygon class="fil0" points="5932,6601 6008,6603 6008,6523 5932,6524 "/>
   <path class="fil0" d="M6151 5854l50 -1 7 -45c-18,-17 -15,-18 -42,-22 -35,22 -41,33 -15,68z"/>
   <path class="fil0" d="M5932 6601l0 -77 76 -1 0 80 8 -43c0,-14 -1,-28 -2,-42 -34,-4 -56,-6 -89,4l4 74c0,-1 2,4 3,5z"/>
  </g>
  <g id="_1103476384">
   <path class="fil0" d="M6113 968c-69,-10 -96,-103 -35,-103 20,0 51,27 58,40 15,33 -4,50 -23,63zm144 73c38,-24 101,-103 135,-147 217,-275 -380,-141 -484,-112 -168,46 -99,16 -176,108 -32,38 -40,30 -97,40l-586 104c3,125 111,194 234,143 89,-38 103,2 165,11 94,12 101,-26 170,-26 47,0 50,15 83,23 113,29 139,-56 251,-8 47,21 307,17 376,9 34,-116 -29,-101 -71,-145z"/>
   <path class="fil0" d="M5818 589l402 30c0,5 1,25 2,27l10 27c26,-4 43,14 28,-87 -55,-40 -198,-34 -281,-42 -130,-12 -155,-28 -278,15 -83,30 -159,52 -240,83 -264,101 -222,27 -220,301 110,-2 67,-14 74,-153 3,-44 -6,-31 32,-44l-1 181 85 -14c-5,-163 -18,-191 39,-203l0 196 75 -10 2 -219 38 -11 1 224 75 -7 2 -249 37 -11 1 218c23,-17 25,-41 45,-59 16,-15 52,-22 72,-30l0 -163z"/>
   <path class="fil0" d="M5529 568c77,-17 56,-18 59,-43l-35 -10c-5,0 -24,1 -30,1l1 -65c-114,-1 -40,-16 -100,-32l-140 0 -20 32c-85,-1 -123,1 -122,92l-84 0 0 185 64 2 0 234 62 -8c1,-326 22,-295 -62,-293l2 -64 74 0 2 -82 104 -2 23 -37 66 -3 31 41 89 0 13 39c0,1 1,8 1,7 1,-2 1,4 2,6z"/>
   <path class="fil0" d="M6113 968c19,-13 38,-30 23,-63 -7,-13 -38,-40 -58,-40 -61,0 -34,93 35,103z"/>
   <polygon class="fil0" points="5249,611 5295,611 5297,571 5247,574 "/>
   <path class="fil0" d="M5370 570l-37 1c0,51 -13,32 26,38 7,-9 4,-2 10,-20 2,-6 1,-11 1,-19z"/>
   <path class="fil0" d="M5420 601c28,-2 32,-15 36,-20 -11,-8 18,-9 -24,-10 -47,-1 -16,3 -27,10l1 17c6,2 1,4 14,3z"/>
   <path class="fil0" d="M5370 570c0,8 1,13 -1,19 -6,18 -3,11 -10,20 -39,-6 -26,13 -26,-38 -4,7 -5,3 -7,18 -3,14 0,12 2,26l46 -3c4,-26 5,-22 -4,-42z"/>
  </g>
  <g id="_1103474080">
   <path class="fil0" d="M5720 1871l202 -2 0 537 -201 0 -1 -535zm-454 57c19,24 14,386 12,439 -2,25 7,51 -26,38 -7,-3 -14,11 -15,-47l1 -390c4,-45 -10,-27 28,-40zm-138 56c-2,70 -1,142 -1,212l1 162c0,29 3,28 -8,48l-24 0c-15,-38 -4,-263 -5,-340 -1,-59 -16,-74 37,-82zm-182 62l32 -9 1 367 -34 -10c-11,-42 -4,-326 1,-348zm-116 36l2 268c0,20 7,84 -30,52 -14,-13 -9,-217 -9,-264 1,-51 -4,-43 37,-56zm633 -213l175 1c42,5 -26,-6 15,3l13 529 -201 4 -2 -537zm535 606c12,-154 8,-521 -2,-694 -55,-14 -254,-5 -326,-5 -383,0 -227,-9 -592,118 -62,22 -126,38 -189,62 -28,11 -157,51 -173,72 -26,36 -12,420 -7,457 23,12 30,11 63,11l858 -1c77,0 310,16 368,-20z"/>
   <path class="fil0" d="M5767 2099l52 0 1 60 -55 0 2 -60zm-46 307l201 0 0 -537 -202 2 1 535z"/>
   <path class="fil0" d="M5569 2098l45 2 -8 59 -39 1 2 -62zm-104 308l201 -4 -13 -529c-41,-9 27,2 -15,-3l-175 -1 2 537z"/>
   <path class="fil0" d="M5266 1928c-38,13 -24,-5 -28,40l-1 390c1,58 8,44 15,47 33,13 24,-13 26,-38 2,-53 7,-415 -12,-439z"/>
   <path class="fil0" d="M5128 1984c-53,8 -38,23 -37,82 1,77 -10,302 5,340l24 0c11,-20 8,-19 8,-48l-1 -162c0,-70 -1,-142 1,-212z"/>
   <path class="fil0" d="M4946 2046c-5,22 -12,306 -1,348l34 10 -1 -367 -32 9z"/>
   <path class="fil0" d="M4830 2082c-41,13 -36,5 -37,56 0,47 -5,251 9,264 37,32 30,-32 30,-52l-2 -268z"/>
   <polygon class="fil0" points="5765,2159 5820,2159 5819,2099 5767,2099 "/>
   <polygon class="fil0" points="5567,2160 5606,2159 5614,2100 5569,2098 "/>
  </g>
  <g id="_1103499744">
   <polygon class="fil0" points="17,1983 18,1756 17,1754 "/>
   <path class="fil0" d="M401 2446c20,236 394,170 273,-106 -67,-1 -45,-1 -79,34l18 33c5,13 7,22 5,38 -3,25 -17,42 -36,51 -66,31 -91,-24 -110,-50l-71 0z"/>
   <g>
    <path class="fil0" d="M17 2197l3 235 0 -488c0,-5 0,-9 0,-14l0 -172c0,-1 -1,-1 -2,-2l-1 227 0 214zm0 235l0 -235 3 235 0 0 -3 0z"/>
    <path class="fil0" d="M20 2432l0 0 0 0zm0 0l0 0c27,-1 59,-1 100,-1 170,0 162,17 215,-78l13 60c108,8 116,2 186,-46 104,-71 25,-60 160,-67 -27,-70 -132,-110 -239,-72 13,-42 4,-1 15,-30 16,-41 10,-67 -17,-93 -37,-36 -31,-51 -53,-108l-74 0c-11,58 33,292 -107,320 23,-77 70,-154 33,-261 -36,-107 -134,-44 -228,-88 -2,-8 -3,-16 -4,-24l0 488zm0 -674l0 172c1,-10 3,-20 6,-31 39,-3 240,90 238,-19 -46,-28 -140,-24 -185,-56 -8,-5 -30,-38 -59,-66l0 172 0 -172zm100 561c-75,-1 -77,-11 -54,-80 47,-140 26,-131 62,-127 38,4 27,65 24,92 -7,53 -20,74 -32,115z"/>
    <path class="fil0" d="M20 1536l0 173c51,0 107,-43 91,-118 -9,-43 -45,-63 -91,-55l0 173 0 -173 0 173c0,0 -1,0 -1,0l1 -173z"/>
    <polygon class="fil0" points="17,1709 19,1709 20,1536 17,1537 "/>
   </g>
   <path class="fil0" d="M424 1974l5 -12c9,-53 10,-54 0,-107l-8 -9 -124 2 2 126 125 0z"/>
   <path class="fil0" d="M120 2319c12,-41 25,-62 32,-115 3,-27 14,-88 -24,-92 -36,-4 -15,-13 -62,127 -23,69 -21,79 54,80z"/>
   <path class="fil0" d="M424 1974l5 -12 -5 12 -125 0 -2 -126 124 -2 8 9c2,-15 6,-14 -8,-9 -22,-8 -39,-5 -67,-5 -8,0 -25,0 -32,0l-25 7c-10,20 -6,39 -6,65 0,22 -1,39 2,61 26,10 102,12 131,0z"/>
  </g>
  <g id="_1103498080">
   <path class="fil0" d="M6844 2421c-124,2 -86,3 -129,-50l-312 -1c0,-54 2,-85 22,-127 9,-19 16,-30 28,-45 6,-8 13,-15 19,-22l20 -26c-77,0 -186,10 -208,-58 -21,-64 -16,-199 21,-237 34,-35 290,-57 334,20 12,22 23,88 11,105 -15,15 -91,3 -112,8 -35,9 -7,0 -30,21 -63,56 -91,-15 -116,-22l-61 -1c-5,38 -1,77 9,105 61,23 190,22 248,-2 7,-19 7,-38 16,-54l105 0c-16,-70 -48,-105 -25,-196 41,-168 108,-150 160,-105l0 687z"/>
   <path class="fil0" d="M6638 2432c-3,7 -11,56 -61,59 -57,4 -63,-43 -80,-83l-82 1c11,211 290,253 306,-2 -93,1 -70,0 -83,25z"/>
   <path class="fil0" d="M6844 1697c-27,-4 -50,-22 -57,-54 -12,-55 9,-101 57,-114l0 168z"/>
  </g>
  <g id="_1103496256">
   <path class="fil0" d="M5525 5068c-69,-9 -96,-103 -35,-103 20,0 51,27 57,41 16,32 -3,49 -22,62zm144 74c38,-24 100,-104 135,-147 217,-276 -380,-141 -484,-113 -169,46 -100,17 -176,108 -32,38 -41,31 -97,41l-586 104c2,124 111,194 234,142 89,-37 102,3 165,11 94,13 101,-25 170,-25 47,-1 50,14 83,23 112,29 139,-57 250,-8 48,21 308,16 376,8 35,-116 -28,-101 -70,-144z"/>
   <path class="fil0" d="M5230 4690l401 29c1,6 2,25 2,28l11 27c26,-4 42,14 28,-88 -55,-39 -199,-34 -281,-41 -131,-12 -156,-29 -278,15 -83,29 -160,52 -241,83 -263,100 -221,26 -219,300 110,-2 66,-13 74,-152 2,-44 -6,-32 31,-44l0 181 85 -14c-5,-164 -18,-192 39,-204l0 197 75 -10 2 -219 37 -11 2 224 75 -8 2 -248 36 -12 1 219c24,-17 26,-42 45,-60 17,-15 52,-21 72,-30l1 -162z"/>
   <path class="fil0" d="M4940 4669c78,-18 57,-18 60,-44l-35 -9c-6,-1 -24,0 -30,0l0 -65c-113,-1 -39,-16 -100,-31l-139 -1 -21 32c-84,0 -123,1 -121,92l-85 1 1 185 63 2 0 234 63 -8c1,-327 22,-295 -62,-293l2 -65 74 1 1 -82 105 -2 22 -38 67 -3 30 42 89 0 13 38c1,2 2,8 2,7 0,-1 1,5 1,7z"/>
   <path class="fil0" d="M5525 5068c19,-13 38,-30 22,-62 -6,-14 -37,-41 -57,-41 -61,0 -34,94 35,103z"/>
   <polygon class="fil0" points="4661,4711 4707,4712 4708,4672 4659,4675 "/>
   <path class="fil0" d="M4781 4671l-36 0c0,51 -13,32 26,39 6,-10 4,-3 10,-21 2,-6 0,-10 0,-18z"/>
   <path class="fil0" d="M4832 4701c27,-1 32,-14 36,-19 -11,-8 18,-10 -25,-11 -47,-1 -15,3 -27,11l1 16c7,3 2,4 15,3z"/>
   <path class="fil0" d="M4781 4671c0,8 2,12 0,18 -6,18 -4,11 -10,21 -39,-7 -26,12 -26,-39 -4,7 -5,4 -8,19 -2,14 1,11 3,25l46 -2c4,-27 5,-23 -5,-42z"/>
  </g>
  <g id="_1103492736">
   <path class="fil0" d="M5498 3977l89 5 -2 -57 -92 -11 -160 -6c-22,-79 27,-116 56,-154 17,-22 199,-187 115,-283 -49,-55 -111,4 -150,22l-20 -95c48,-23 104,-67 184,-47 67,16 108,61 114,133 15,210 -120,227 -156,327l162 4 -2 172 280 10 -1 -201 -218 -9c-5,-123 38,-146 81,-235 22,-44 75,-169 109,-210l142 -5 -2 354 60 20 -1 81 -59 10 0 198c48,4 138,-11 190,-16 117,-13 87,-2 131,-80 81,-4 177,24 135,-62 -96,-19 -246,12 -327,-14l3 -56c71,-22 387,9 422,-16 29,-21 17,-51 -22,-57 -23,-3 -79,0 -106,0 -68,0 -168,22 -139,-62 41,-15 194,10 147,-63 -51,-36 -223,-3 -291,-17 -69,-113 144,-47 168,-75 3,-3 31,-151 -36,-178 -67,-27 -334,-29 -412,-20 -34,4 -55,5 -73,41 -44,86 -17,63 -53,61 -14,-22 -13,-3 2,-38 10,-24 11,-10 16,-42 -123,-6 -344,-53 -437,16 -64,48 -88,51 -53,158 33,101 60,83 168,86 -28,61 -57,74 -92,119 -19,26 -79,92 -92,119 -22,48 -19,141 26,160 28,12 161,15 196,13z"/>
   <path class="fil0" d="M6248 3000l-8 4c9,39 0,3 11,27 21,48 -7,-26 9,18l-25 21c-32,-22 1,-27 -36,-17 5,16 7,11 -12,11 -34,24 -65,103 -54,166l65 7c-5,-105 42,-176 134,-198l1 204 149 1 -1 -67 -90 -4 3 -136c168,15 231,284 3,348l0 59c123,-20 128,-46 156,-86 23,-33 28,-33 44,-77 37,-103 -21,-222 -80,-266 -47,-35 -114,-53 -189,-42 -18,26 -21,23 -40,43l-13 -25 -27 9z"/>
   <polygon class="fil0" points="5801,3692 5917,3691 5917,3449 "/>
   <path class="fil0" d="M6248 3000l-8 4 -41 49 -12 11c19,0 17,5 12,-11 37,-10 4,-5 36,17l25 -21c-16,-44 12,30 -9,-18 -11,-24 -2,12 -11,-27l8 -4 27 -9 13 25c19,-20 22,-17 40,-43 -32,4 -54,9 -80,27z"/>
   <path class="fil0" d="M5498 3977c23,11 67,16 95,5l2 -60c-25,-5 -68,-8 -102,-8l92 11 2 57 -89 -5z"/>
  </g>
  <g id="_1103491456">
   <path class="fil0" d="M6841 4577l0 48c-20,-36 -59,-47 -86,-37 -24,8 -82,80 -105,97 21,33 28,31 15,79 -14,-36 -42,-27 -80,-16l-1 -53c-44,9 -31,33 -29,158 1,64 0,129 0,193l-30 -1 -16 -7c19,-25 38,-63 33,-104 -15,-30 -36,-48 -76,-42l-2 -152c-49,12 -28,13 -30,145 -1,56 -2,115 1,171l-78 6c-6,-69 -13,-320 6,-372 19,-12 184,-70 223,-83 77,-26 154,-54 229,-80 8,28 9,33 26,50zm0 149l0 298 -4 1 3 -217c-6,-31 -7,-50 0,-83l1 1zm0 349l0 182c-88,-1 -225,2 -260,4 -65,86 -112,9 -146,1 -64,-16 -91,34 -80,-145 45,-3 110,83 129,112 12,16 10,14 23,24l-1 -82c19,-10 18,-2 0,-9 -26,-6 -57,-38 -71,-61l406 -26z"/>
   <path class="fil0" d="M6585 4748l1 48c77,-25 60,36 19,65l-21 13 1 18 31 18c16,-16 45,-35 48,-54 26,66 -2,84 -19,126 12,17 13,14 27,33l-10 23c24,-15 8,4 15,-24l1 -72c1,-32 0,-64 -1,-97 -2,-37 2,-70 2,-105 -1,-39 -16,-65 16,-81 19,20 11,55 10,89l3 286c28,3 18,4 33,-6l-27 -4 3 -66c79,-47 56,-122 -2,-141l0 -62c20,29 57,66 87,77l0 -138c-34,11 -20,8 -43,29 -89,-31 -5,-85 17,-92 14,11 0,3 26,9 7,-24 -2,-13 14,-27 10,9 11,12 12,45l-1 163c0,37 -12,175 10,204l3 -217c-6,-31 -7,-50 0,-83l1 1 0 -101c-20,-36 -59,-47 -86,-37 -24,8 -82,80 -105,97 21,33 28,31 15,79 -14,-36 -42,-27 -80,-16z"/>
   <path class="fil0" d="M6841 4522l-26 5c8,28 9,33 26,50l0 -55z"/>
   <path class="fil0" d="M6741 5028l61 1 0 -197c-30,-11 -67,-48 -87,-77l0 62c58,19 81,94 2,141l-3 66 27 4z"/>
   <path class="fil0" d="M6585 4892l2 149 75 -3 10 -23c-14,-19 -15,-16 -27,-33 17,-42 45,-60 19,-126 -3,19 -32,38 -48,54l-31 -18z"/>
   <path class="fil0" d="M6466 4892c-4,60 -10,101 0,162 10,0 25,0 34,-1l25 -8 -16 -7c19,-25 38,-63 33,-104 -15,-30 -36,-48 -76,-42z"/>
   <path class="fil0" d="M6484 5229c0,-40 -2,-48 22,-67l0 9c19,-10 18,-2 0,-9 -26,-6 -57,-38 -71,-61 -17,3 -31,1 -48,3 -44,4 -20,-11 -32,13 45,-3 110,83 129,112z"/>
   <path class="fil0" d="M6802 4694l0 -54c-26,-6 -12,2 -26,-9 -22,7 -106,61 -17,92 23,-21 9,-18 43,-29z"/>
   <path class="fil0" d="M6586 4796l-2 78 21 -13c41,-29 58,-90 -19,-65z"/>
   <path class="fil0" d="M6484 5229c12,16 10,14 23,24l-1 -82 0 -9c-24,19 -22,27 -22,67z"/>
  </g>
  <g id="_1103489664">
   <path class="fil0" d="M118 5283c-34,-4 -37,-16 -38,-50 -1,-46 1,-54 40,-56 -15,42 -13,67 -2,106zm-155 14l0 -181 26 -2 9 54 48 0 1 -107 -84 4 0 -108 2 -108c-1,-4 -1,-6 -2,-9l0 -64c1,-4 1,-7 2,-10 72,40 72,42 106,11 -31,-50 -78,-26 -92,-72 -2,-5 -4,-14 -5,-20 -3,-9 -7,-17 -11,-24l0 -46c2,2 4,4 7,6l29 28c6,6 5,7 11,13 27,29 51,51 85,82 12,-16 21,-17 30,-38 -21,-20 -44,-41 -63,-63 12,-18 18,-29 43,-38l0 66c139,-24 217,-24 362,-24 218,0 200,-20 222,170 44,26 53,-8 48,77l-65 -2c-10,-49 -13,-120 -34,-153 -40,-12 -311,-19 -339,3 -27,28 -15,131 -9,175 51,27 260,18 337,13 17,-1 33,-3 50,-3 7,0 26,0 32,0l28 7c-20,44 -70,15 -71,186l42 16c0,147 15,150 -79,165 -41,6 -16,13 -55,31 -65,30 -81,-23 -117,-30l-248 0c-29,6 -16,15 -48,30 -74,34 -87,-24 -125,-31 -10,-2 -37,-3 -73,-4zm656 -129c-27,21 -148,9 -183,9 34,-27 45,5 148,-21 36,-9 28,-3 35,12zm-88 -67c43,0 59,-21 87,-5l1 24c-31,2 -158,11 -183,-8 21,-19 67,-11 95,-11zm-245 -139c62,25 82,83 82,169l-82 -9 0 -160zm150 85c14,-13 -15,-5 22,-11l82 1c25,-2 31,-9 49,-9 43,-2 24,2 30,19 -23,16 -160,16 -183,0zm-265 -118c-51,-4 -48,-5 -48,-59 0,-26 -4,-74 6,-95 8,-17 44,-33 71,-29 37,5 25,31 25,75 -74,1 -54,36 -54,108z"/>
   <path class="fil0" d="M-37 4957l2 -108c-1,-4 -1,-6 -2,-9l0 117zm0 -181c1,-4 1,-7 2,-10 72,40 72,42 106,11 -31,-50 -78,-26 -92,-72 -2,-5 -4,-14 -5,-20 -3,-9 -7,-17 -11,-24l0 115z"/>
   <path class="fil0" d="M14 4546c0,21 4,16 -17,10 0,32 10,36 33,51 24,-13 19,-13 41,-37 13,-14 19,-21 40,-29l22 20c-16,25 -8,6 -22,38 75,-5 158,-2 234,-2 35,0 80,-2 114,0 49,3 27,19 96,13 0,-36 -2,-51 -12,-77 -69,-19 -475,-14 -529,13z"/>
   <path class="fil0" d="M-3 4556c21,6 17,11 17,-10 -20,1 -18,-5 -17,10l-34 7 0 52c2,2 4,4 7,6l29 28c6,6 5,7 11,13 27,29 51,51 85,82 12,-16 21,-17 30,-38 -21,-20 -44,-41 -63,-63 12,-18 18,-29 43,-38l6 -6c14,-32 6,-13 22,-38l-22 -20c-21,8 -27,15 -40,29 -22,24 -17,24 -41,37 -23,-15 -33,-19 -33,-51z"/>
   <path class="fil0" d="M171 4929c0,-72 -20,-107 54,-108 0,-44 12,-70 -25,-75 -27,-4 -63,12 -71,29 -10,21 -6,69 -6,95 0,54 -3,55 48,59z"/>
   <path class="fil0" d="M286 5122l82 9c0,-86 -20,-144 -82,-169l0 160z"/>
   <path class="fil0" d="M531 5101c-28,0 -74,-8 -95,11 25,19 152,10 183,8l-1 -24c-28,-16 -44,5 -87,5z"/>
   <path class="fil0" d="M436 5047c23,16 160,16 183,0 -6,-17 13,-21 -30,-19 -18,0 -24,7 -49,9l-82 -1c-37,6 -8,-2 -22,11z"/>
   <path class="fil0" d="M118 5283c-11,-39 -13,-64 2,-106 -39,2 -41,10 -40,56 1,34 4,46 38,50z"/>
   <path class="fil0" d="M619 5168c-7,-15 1,-21 -35,-12 -103,26 -114,-6 -148,21 35,0 156,12 183,-9z"/>
  </g>
 </g>
</svg>
