<svg xmlns="http://www.w3.org/2000/svg" width="193.826" height="204" viewBox="0 0 193.826 204"><title>fondo</title><desc>Created with Sketch.</desc><path fill="#900000" d="M32.162 83.97c-.088-.35-.372-.651-.765-.72-.354-.078-.736.058-.991.369l-4.772 6.218-.118.194-2.152 5.199-11.068 2.734-2.648-1.577c-.245-.146-.549-.194-.854-.078-.226.097-.461.321-.559.593l-1.504 4.131c-.079.185-.069.389-.03.543l1.194 4.746c.127.504.667.826 1.177.7s.834-.661.707-1.166l-1.115-4.434.982-2.722 1.961 1.168c.245.146.5.166.736.106l11.931-2.948c.314-.078.55-.301.648-.572l2.407-5.51 3.457-4.49.401 1.595c.039.155.107.263.225.399l5.059 5.854-.236 1.05-4.57-1.928c-.322-.127-.646-.088-.932.105-.285.194-.422.477-.422.807l-.043 4.967c0 .166.039.32.117.467l4.605 8.528c-2.513 2.438-6.074 4.351-10.235 5.379-4.16 1.026-8.251 1.005-11.625.021l-.013-9.662c.02-.088 0-.166-.02-.243l-.293-1.167c-.127-.506-.667-.827-1.177-.701s-.834.661-.707 1.166l.265 1.05-.025 8.847c-1.638-.711-3.05-1.684-4.188-2.89-.392-.399-.98-.418-1.383-.03-.403.389-.423.973-.03 1.371 4.215 4.494 11.739 6.063 19.628 4.114 7.889-1.949 13.788-6.834 15.41-12.812.158-.535-.186-1.069-.676-1.196-.539-.156-1.08.184-1.207.67-.434 1.594-1.219 3.11-2.328 4.5l-4.145-7.692.002-3.305 4.285 1.791c.275.098.57.107.824-.038.256-.146.452-.358.501-.661l.581-2.663c.049-.301-.029-.612-.216-.856l-5.225-6.021-.831-3.3zM18.479 110.275l.247-3.158 8.125-2.008 1.714 2.674c.227.399.678.535 1.07.438.117-.028.195-.048.304-.117.432-.271.569-.884.285-1.351l-2.067-3.248c-.216-.36-.677-.535-1.07-.438l-9.537 2.355c-.392.097-.716.466-.736.884l-.288 3.831c-.068.555.343 1.03.893 1.061.56.069 1.04-.339 1.06-.923z"/><ellipse cx="66.83" cy="104.827" rx="2.784" ry="2.756" fill="none"/><path d="M43.605 147.255c-.914 2.417.033 5.101 2.122 6.422l3.692-9.755c-2.425-.436-4.899.916-5.814 3.333zM193.826 133.413l-.175-.018v1.764l.175.019zM20.921 138.723c.1-.961-.585-1.871-1.571-1.976-.986-.104-1.845.644-1.946 1.604-.105 1.004.584 1.871 1.571 1.976.987.105 1.841-.6 1.946-1.604zM102.445 50.269l-23.512 8.007c-1.391.479-2.135 2.001-1.654 3.396l4.459 12.949c.48 1.395 2.001 2.138 3.396 1.656l4.156-1.43 3.479 1.274 2.396-3.299 13.477-4.552c1.394-.479 2.138-2.001 1.657-3.395l-4.458-12.949c-.481-1.393-2.001-2.137-3.396-1.657zm-19.795 17.112l-.593-1.692 14.36-5.032.593 1.692-14.36 5.032zm-1.057-3.114l-.583-1.694 19.737-6.797.583 1.694-19.737 6.797zM67.624 151.008l-3.693 9.756c2.425.437 4.899-.916 5.814-3.332.915-2.418-.032-5.101-2.121-6.424zM95.441 130.025h25.5v15.531h-25.5zM126.085 18.979l31.646-8.413-.815-3.021c-.134-.494-.646-.789-1.148-.656l-29.837 7.933c-.498.133-.794.642-.661 1.136l.815 3.021zm7.138-4.969c.535-.143 1.085.173 1.229.704.144.531-.174 1.077-.709 1.219s-1.085-.173-1.229-.703c-.144-.532.174-1.077.709-1.22zm-2.712.72c.535-.142 1.085.174 1.229.705.144.531-.174 1.076-.709 1.219-.535.142-1.085-.172-1.229-.704-.144-.532.174-1.077.709-1.22zm-2.713.722c.535-.142 1.085.173 1.229.704.144.531-.174 1.077-.709 1.219-.535.143-1.085-.173-1.229-.704-.144-.531.174-1.077.709-1.219z" fill="none"/><path fill="#900000" d="M6.819 195.28l5.623-15.302c.191-.52-.079-1.094-.604-1.283l-12.014-4.331v2.133l10.369 3.737-4.93 13.418-5.439-1.961v2.134l5.697 2.054c.527.189 1.107-.078 1.298-.599z"/><path d="M193.826 142.354l-.175-.014v1.799l.175.014v-1.799z" fill="none"/><path fill="#900000" d="M3.8 171.266c.525.188 1.106-.078 1.299-.599.189-.521-.08-1.096-.605-1.285l-4.668-1.682v2.132l3.974 1.434zM3.13 183.35l.021-.056c.33-.897.478-1.842.435-2.803-.022-.554-.496-.981-1.055-.958-.56.023-.992.492-.968 1.046.029.68-.069 1.346-.297 1.979l-.019.049c-.303.824-.81 1.51-1.423 2.063v2.476c1.473-.81 2.674-2.118 3.306-3.796z"/><path d="M130.026 33.563c.133.495.646.789 1.146.656l29.837-7.933c.5-.133.796-.64.662-1.137l-3.454-12.79-31.645 8.414 3.454 12.79zm11.647-11.001l6.319-1.716.495 1.792-6.32 1.716-.494-1.792zm1.47 5.404l-.484-1.794 6.33-1.683.484 1.795-6.33 1.682zm9.018-11.771l.485 1.793-11.38 3.026-.484-1.793 11.379-3.026zm-10.971 12.37l-9.191 2.444-2.362-8.747 9.191-2.444 2.362 8.747zM185.091 179.009c-1.002 2.726.422 5.75 3.174 6.742 1.921.692 3.973.196 5.387-1.08v-8.174l-1.752-.632c-2.753-.992-5.807.419-6.809 3.144zm6.18 2.229c-.113.31-.352.568-.654.703-.3.145-.652.158-.966.045-.314-.113-.575-.348-.714-.649-.144-.296-.156-.646-.043-.956.115-.311.352-.568.654-.708.301-.14.654-.153.967-.04.314.113.576.348.713.645.143.3.158.648.043.96z" fill="none"/><path fill="#900000" d="M9.571 173.878l-2.379-.856c-.523-.188-1.104.08-1.295.6-.192.52.078 1.095.604 1.285l2.377.854c.525.189 1.105-.077 1.297-.599.192-.521-.078-1.096-.604-1.284z"/><path fill="none" d="M193.825 137.917l-.174-.019v1.767l.174.019zM185.751 173.132c-.275.222-.648.283-.982.163l-4.991-1.8-4.931 13.418 18.805 6.778v-4.545c-1.796.99-3.997 1.238-6.076.489-3.802-1.37-5.768-5.547-4.384-9.312 1.382-3.764 5.599-5.711 9.401-4.342l1.059.382v-4.532l-2.617-.943-5.284 4.244zM133.323 28.734l5.577-1.483-1.394-5.159-5.577 1.483z"/><path fill="#900000" d="M12.561 23.516l-5.163-14.994c-.555-1.614-2.316-2.476-3.931-1.919l-3.642 1.253v1.583l3.265-1.112c1.395-.48 2.916.264 3.396 1.658l4.458 12.949c.48 1.396-.264 2.918-1.657 3.397l-9.462 3.196v1.647l10.817-3.725c1.614-.554 2.475-2.317 1.919-3.933zM19.389 70.527l-7.676-26.793c-.154-.538-.715-.849-1.253-.695l-10.635 3.053v2.109l10.221-2.933 7.118 24.844-17.339 4.975v2.108l18.871-5.416c.537-.153.848-.714.693-1.252zM31.838 66.637c.221.68.516 1.335.878 1.946 1.072 1.848 2.82 3.639 5.194 5.322 1.864 1.321 4.123 2.585 6.714 3.757 4.389 1.984 8.172 3.008 8.331 3.05.17.045.346.04.506-.013.162-.053.307-.151.418-.289.104-.128 2.56-3.182 4.938-7.371 1.404-2.473 2.485-4.825 3.212-6.991.926-2.76 1.281-5.238 1.054-7.364-.068-.695-.213-1.387-.43-2.055l-.059-.175c-.787-2.277-2.36-4.143-4.431-5.252-2.092-1.122-4.455-1.347-6.654-.633-1.808.587-3.331 1.747-4.404 3.354-.646.967-1.095 2.042-1.333 3.177-.859-.779-1.853-1.384-2.943-1.787-1.81-.669-3.723-.712-5.531-.125-2.199.713-3.979 2.282-5.014 4.419-1.023 2.114-1.202 4.547-.501 6.852l.055.178zm2.047-6.263c.821-1.696 2.228-2.939 3.959-3.501 1.422-.461 2.932-.425 4.365.104 1.4.517 2.652 1.499 3.526 2.764.223.323.632.46 1.007.339.374-.121.625-.473.615-.865-.036-1.538.4-3.069 1.229-4.31.85-1.271 2.05-2.188 3.472-2.648 1.732-.562 3.601-.382 5.262.508 1.677.899 2.954 2.417 3.594 4.273l.001.005.046.137c.178.549.296 1.115.352 1.685v.008c.458 4.29-1.939 9.587-4.031 13.275-1.784 3.146-3.658 5.688-4.427 6.691-1.212-.358-4.223-1.31-7.518-2.802-3.864-1.749-8.922-4.617-11.084-8.348l-.004-.007c-.296-.5-.539-1.037-.72-1.595l-.042-.139-.001-.006c-.572-1.878-.43-3.856.399-5.568zM1.391 13.834l-1.566.54v1.895l2.149-.741zM102.823 48.543l-25.604 8.816c-1.612.555-2.473 2.317-1.916 3.933l5.163 14.994c.556 1.614 2.317 2.475 3.932 1.918l4.812-1.657 4.028 1.477 2.775-3.818 13.985-4.815c1.614-.556 2.475-2.318 1.919-3.934l-5.163-14.994c-.556-1.615-2.316-2.476-3.931-1.92zm5.819 19.728l-13.477 4.552-2.396 3.299-3.479-1.274-4.156 1.43c-1.395.481-2.916-.262-3.396-1.656l-4.459-12.949c-.481-1.395.263-2.917 1.654-3.396l23.512-8.007c1.395-.48 2.915.264 3.396 1.658l4.458 12.949c.481 1.393-.263 2.915-1.657 3.394zM114.254 84.025l-1.207 6.217c-.106.55.251 1.081.8 1.188s1.08-.252 1.186-.801l1.207-6.217c.106-.549-.252-1.082-.8-1.188-.549-.107-1.079.253-1.186.801zM128.216 34.044c.401 1.484 1.944 2.369 3.441 1.971l29.836-7.932c1.496-.398 2.387-1.929 1.987-3.414l-4.755-17.604c-.4-1.483-1.944-2.367-3.439-1.97l-29.837 7.933c-1.496.398-2.387 1.929-1.987 3.413l4.754 17.603zm30.001-21.685l3.454 12.79c.134.497-.162 1.004-.662 1.137l-29.837 7.933c-.5.133-1.013-.161-1.146-.656l-3.454-12.79 31.645-8.414zm-32.286 2.463l29.837-7.933c.502-.133 1.014.162 1.148.656l.815 3.021-31.646 8.413-.815-3.021c-.133-.494.163-1.003.661-1.136zM82.652 67.38l-.593-1.692 14.359-5.035.593 1.692zM81.59 64.26l-.583-1.694 19.739-6.795.583 1.694zM152.646 17.988l-.485-1.793-11.379 3.026.484 1.793zM147.992 20.846l-6.319 1.716.494 1.792 6.32-1.716zM131.999 31.009l9.191-2.444-2.362-8.747-9.191 2.444 2.362 8.747zm6.901-3.758l-5.577 1.483-1.394-5.159 5.577-1.483 1.394 5.159zM142.659 26.172l.484 1.794 6.33-1.682-.484-1.795zM87.015 22.993c-.154-.538-.714-.849-1.251-.695l-1.458.419-.418-1.461c-.154-.538-.714-.849-1.251-.694-.537.154-.847.715-.693 1.253l.418 1.46-1.458.419c-.537.154-.847.715-.693 1.253.153.538.713.849 1.25.694l1.458-.418.418 1.46c.154.538.714.849 1.251.694.537-.155.847-.715.693-1.253l-.418-1.461 1.458-.418c.537-.154.848-.715.694-1.252zM76.922 36.431c.586 2.047 2.036 3.395 3.877 3.606 1.874.214 3.682-.805 4.728-2.663l5.524-8.144c.314-.462.194-1.092-.268-1.407-.462-.314-1.09-.194-1.405.269l-5.548 8.181-.048.078c-.638 1.153-1.693 1.796-2.753 1.674-.995-.114-1.772-.869-2.14-2.075l-1.686-14.742 4.557-4.725 7.55 1.517c.317.064.645-.028.883-.247l5.836-5.37 6.134 1.642 6.372 13.407c.326 1.218.067 2.271-.717 2.896-.834.665-2.069.681-3.22.042l-.067-.034-8.79-4.062c-.506-.234-1.108-.013-1.341.496-.233.509-.013 1.11.495 1.344l8.757 4.047c1.295.71 2.69.882 3.916.53.544-.156 1.056-.415 1.509-.778 1.451-1.156 1.967-3.069 1.381-5.116l-.059-.157-6.611-13.908c-.127-.269-.366-.467-.651-.543l-7.121-1.907c-.334-.089-.69-.001-.945.232l-5.866 5.398-7.589-1.526c-.337-.068-.686.041-.926.29l-5.273 5.467c-.21.218-.312.519-.277.819l1.75 15.305.032.164zM86.795 11.2c.154.538.714.849 1.251.694.537-.155.847-.715.693-1.253l-1.742-6.086c-.154-.538-.714-.849-1.251-.695-.537.154-.847.715-.693 1.253l1.742 6.087zM82.481 92.938l-8.857 11.273c-.343.438-.264 1.066.178 1.406.186.143.403.211.621.211.303 0 .602-.133.801-.387l8.857-11.273c.343-.437.265-1.066-.177-1.405-.444-.34-1.079-.26-1.423.175zM179.042 36.264l4.812-1.656 4.027 1.477 2.775-3.819 3.167-1.09v-1.647l-4.015 1.356-2.396 3.299-3.479-1.275-4.156 1.431c-1.396.481-2.915-.263-3.396-1.657l-4.459-12.949c-.479-1.395.264-2.917 1.654-3.396l20.248-6.899v-1.583l-21.962 7.563c-1.612.555-2.473 2.317-1.916 3.933l5.162 14.994c.558 1.614 2.318 2.475 3.934 1.918zM167.561 172.258l-22.281-3.139c-.547-.076-1.053.305-1.129.854l-3.827 27.287c-.077.549.304 1.055.851 1.133l22.281 3.137c.547.078 1.053-.305 1.129-.853l3.828-27.288c.077-.548-.304-1.055-.852-1.131zm-4.817 27.146l-20.3-2.857 3.549-25.303 20.301 2.857-3.55 25.303zM170.017 146.834l.097-.16c1.238-2.102 1.639-4.538 1.132-6.86-.511-2.348-1.894-4.312-3.89-5.534-1.642-1.004-3.54-1.413-5.484-1.182-1.171.141-2.294.502-3.326 1.065.036-1.173-.152-2.335-.559-3.439-.677-1.834-1.9-3.335-3.542-4.339-1.997-1.223-4.378-1.559-6.705-.951-2.303.603-4.296 2.064-5.611 4.12l-.101.159c-.379.619-.69 1.275-.922 1.955-.719 2.039-.95 4.562-.686 7.495.208 2.303.72 4.87 1.52 7.635 1.359 4.681 3.059 8.263 3.131 8.412.077.161.198.291.343.382.146.089.318.137.498.132.166-.005 4.136-.122 8.932-1.049 2.83-.546 5.354-1.262 7.5-2.126 2.737-1.104 4.882-2.461 6.372-4.031.491-.512.929-1.078 1.301-1.684zm-15.494 6.072c-3.601.695-6.792.927-8.073.995-.52-1.169-1.767-4.109-2.786-7.624-1.192-4.122-2.311-9.898-.857-14.015l.003-.007c.19-.557.445-1.097.756-1.604l.079-.124.003-.005c1.071-1.675 2.69-2.865 4.555-3.354 1.847-.482 3.731-.219 5.303.744 1.292.789 2.256 1.975 2.791 3.425.522 1.417.589 3.024.189 4.529-.102.385.062.79.402.997.34.208.776.169 1.071-.096 1.163-1.039 2.628-1.709 4.131-1.888 1.539-.183 3.034.139 4.326.929 1.574.961 2.664 2.519 3.07 4.381.41 1.882.08 3.861-.929 5.574l-.003.005-.076.125c-.305.498-.664.962-1.066 1.378l-.005.006c-3.005 3.174-8.665 4.812-12.884 5.629zM58.985 104.827c0-.555-.453-1.002-1.012-1.002-.56 0-1.013.447-1.013 1.002 0 5.387 4.428 9.77 9.871 9.77.559 0 1.012-.448 1.012-1.002 0-.553-.453-1.002-1.012-1.002-4.327 0-7.846-3.483-7.846-7.766zM10.805 135.451c.05-.48-.294-.914-.766-.963l-10.214-1.075v1.765l10.031 1.057c.472.049.899-.303.949-.784zM80.75 103.825c-.56 0-1.013.448-1.013 1.002 0 7.045-5.79 12.775-12.907 12.775s-12.907-5.73-12.907-12.775c0-3.412 1.343-6.621 3.78-9.033 5.033-4.981 13.222-4.981 18.254 0 .396.392 1.037.392 1.433 0 .396-.393.396-1.026 0-1.418-2.82-2.79-6.57-4.327-10.56-4.327-3.987 0-7.737 1.537-10.559 4.327-2.821 2.791-4.374 6.504-4.374 10.451 0 8.149 6.699 14.779 14.932 14.779 8.234 0 14.932-6.63 14.932-14.779.001-.554-.452-1.002-1.011-1.002zM123.517 118.838c1.817-.369 3.144-1.84 3.55-3.931l.019-.167.413-15.402c.008-.297-.115-.583-.334-.781l-5.482-4.938c-.257-.23-.615-.314-.948-.223l-7.675 2.142-6.071-4.812c-.27-.215-.63-.275-.957-.164l-7.177 2.473c-.287.099-.514.32-.619.604l-5.378 14.438-.046.16c-.406 2.092.275 3.951 1.821 4.978 1.573 1.044 3.646.957 5.42-.222l8.615-4.746c.49-.27.668-.885.399-1.376-.269-.49-.884-.669-1.374-.399l-8.653 4.768-.078.048c-1.091.737-2.323.83-3.212.239-.836-.555-1.186-1.58-.967-2.823l5.18-13.905 6.203-2.137 6.042 4.788c.254.2.588.268.899.182l7.636-2.13 4.722 4.253-.398 14.849c-.262 1.233-.97 2.053-1.952 2.254-1.045.213-2.153-.334-2.89-1.428l-.044-.061-5.993-7.619c-.345-.438-.981-.516-1.42-.168-.439.347-.514.982-.168 1.423l5.971 7.591c.832 1.219 1.996 2.008 3.248 2.252.556.105 1.129.107 1.698-.01zM103.747 103.656c.548.105 1.079-.252 1.186-.801l.29-1.492 1.489.289c.548.107 1.079-.25 1.186-.801.106-.55-.251-1.082-.8-1.188l-1.489-.29.29-1.492c.106-.549-.251-1.081-.8-1.188-.548-.105-1.08.252-1.186.802l-.29 1.491-1.489-.289c-.548-.107-1.079.252-1.186.801-.106.55.251 1.081.8 1.188l1.489.291-.29 1.491c-.106.55.252 1.081.8 1.188zM183.191 178.324c-1.384 3.765.582 7.941 4.384 9.312 2.079.749 4.28.501 6.076-.489v-2.476c-1.414 1.276-3.466 1.772-5.387 1.08-2.752-.992-4.176-4.017-3.174-6.742 1.002-2.725 4.057-4.136 6.809-3.144l1.752.632v-2.133l-1.059-.382c-3.802-1.369-8.019.579-9.401 4.342zM174.847 184.913l4.931-13.418 4.991 1.8c.334.12.707.059.982-.163l5.283-4.243 2.617.943v-2.132l-2.463-.888c-.334-.121-.707-.06-.983.164l-5.282 4.241-5.404-1.948c-.524-.188-1.104.08-1.297.6l-5.623 15.301c-.19.521.08 1.096.605 1.285l20.447 7.37v-2.134l-18.804-6.778zM190.515 179.633c-.312-.113-.666-.1-.967.04-.303.14-.539.397-.654.708-.113.311-.101.66.043.956.139.302.399.536.714.649.313.113.666.1.966-.045.303-.135.541-.394.654-.703.115-.312.101-.66-.043-.961-.137-.297-.399-.531-.713-.644zM188.96 139.182l.943.101c.472.05.897-.304.949-.782.051-.48-.295-.914-.767-.964l-.942-.101c-.474-.049-.9.304-.95.783-.049.48.295.914.767.963zM185.746 141.749c-.729-.079-1.266-.767-1.188-1.524l.942-9.186c.078-.758.742-1.316 1.474-1.238.063.008 3.245.463 6.852.963v-1.81c-3.518-.489-6.584-.929-6.669-.937-1.674-.181-3.193 1.099-3.371 2.838l-.943 9.184c-.18 1.738 1.048 3.312 2.764 3.498.07.008 3.977.289 8.045.602v-1.799c-4.033-.31-7.858-.587-7.906-.591zM191.639 20.423l-14.362 5.031-.593-1.692 14.362-5.031zM193.825 14.374l-18.171 6.256.583 1.695 17.588-6.056zM192.702 138.682c-.051.479.294.914.766.963l.184.021v-1.767c-.473-.049-.9.302-.95.783zM189.629 132.971c-.472-.05-.899.303-.95.783-.05.479.296.913.769.963l4.204.442v-1.765l-4.023-.423zM193.825 46.092l-11.266 3.233c-.538.155-.85.716-.695 1.254l7.676 26.792c.154.538.715.85 1.254.695l3.031-.871v-2.108l-2.617.751-7.117-24.844 9.734-2.793v-2.109zM71.639 104.827c0-2.625-2.158-4.76-4.81-4.76s-4.81 2.135-4.81 4.76 2.158 4.76 4.81 4.76 4.81-2.135 4.81-4.76zm-4.809 2.756c-1.535 0-2.784-1.236-2.784-2.756 0-1.521 1.249-2.756 2.784-2.756s2.784 1.235 2.784 2.756c0 1.52-1.249 2.756-2.784 2.756zM56.682 185.953l-6.611-13.908c-.127-.27-.366-.467-.652-.544l-7.121-1.907c-.334-.088-.69 0-.945.233l-5.866 5.397-7.589-1.526c-.337-.068-.686.041-.926.29l-5.273 5.467c-.21.217-.312.518-.277.818l1.75 15.305.032.164c.586 2.048 2.036 3.396 3.877 3.605 1.874.215 3.682-.806 4.728-2.662l5.524-8.145c.313-.463.193-1.093-.268-1.407-.462-.313-1.09-.194-1.405.269l-5.548 8.182-.048.077c-.638 1.153-1.693 1.796-2.753 1.675-.996-.113-1.772-.869-2.14-2.076l-1.686-14.742 4.558-4.724 7.551 1.519c.317.062.645-.028.883-.248l5.836-5.369 6.133 1.643 6.373 13.407c.326 1.219.067 2.271-.717 2.896-.834.666-2.069.683-3.22.043l-.067-.033-8.79-4.062c-.506-.232-1.108-.012-1.341.496s-.013 1.109.495 1.344l8.757 4.047c1.295.711 2.69.883 3.916.53.544-.155 1.056-.415 1.509-.778 1.451-1.156 1.967-3.067 1.381-5.115l-.06-.161zM33.298 182.305c-.154-.537-.714-.849-1.251-.693l-1.458.418-.418-1.461c-.154-.537-.714-.85-1.25-.694-.537.153-.848.716-.693 1.254l.418 1.46-1.458.419c-.537.154-.847.716-.693 1.254.154.537.714.849 1.251.693l1.458-.418.418 1.461c.154.537.714.849 1.251.692.537-.152.847-.715.693-1.252l-.418-1.461 1.458-.418c.535-.157.846-.717.692-1.254zM32.03 163.172c-.537.154-.848.717-.693 1.254l1.742 6.086c.154.537.714.85 1.25.694.537-.154.848-.715.693-1.253l-1.742-6.086c-.153-.538-.713-.849-1.25-.695zM8.668 138.824c-.472-.051-.899.303-.949.781-.051.48.294.914.766.965l.944.1c.471.049.898-.303.949-.783.05-.479-.294-.914-.766-.963l-.944-.1zM4.159 138.361c-.472-.051-.899.303-.95.783-.05.479.294.912.767.963l.943.1c.472.049.899-.303.949-.783.051-.48-.294-.914-.766-.963l-.943-.1zM22.637 138.902c.206-1.965-1.173-3.699-3.103-3.902s-3.639 1.205-3.845 3.17c-.207 1.965 1.173 3.699 3.103 3.902 1.93.203 3.638-1.206 3.845-3.17zm-5.233-.55c.101-.961.96-1.709 1.946-1.604.986.104 1.671 1.015 1.571 1.976-.105 1.004-.959 1.709-1.946 1.604-.987-.105-1.676-.973-1.571-1.976zM24.073 147.029c1.673.18 3.192-1.1 3.371-2.838l.943-9.186c.183-1.783-1.043-3.357-2.763-3.498-.128-.014-12.698-.915-16.258-1.298-1.807-.194-5.913-.752-9.54-1.257v1.811c3.583.497 7.583 1.039 9.357 1.229 3.56.383 16.215 1.293 16.301 1.303.729.078 1.266.769 1.188 1.524l-.943 9.185c-.078.759-.742 1.318-1.472 1.24-.128-.015-12.649-1.812-16.209-2.195-1.58-.17-4.952-.442-8.221-.696v1.799c3.207.248 6.482.516 8.038.683 3.558.383 16.036 2.176 16.208 2.194zM1.361 138.961c.05-.479-.294-.914-.766-.963l-.77-.081v1.767l.586.062c.472.048.899-.305.95-.785zM117.916 165.73c-.481-.181-1.02.051-1.202.515l-1.629 4.125c-.184.464.057.985.539 1.165.241.09.496.076.713-.016.217-.095.398-.269.489-.5l1.629-4.125c.183-.464-.057-.984-.539-1.164zM51.105 142.299c-3.732-1.453-7.934.444-9.367 4.229-1.433 3.785.438 8.048 4.17 9.5.516.201 1.094-.061 1.292-.584l4.479-11.834c.199-.524-.058-1.11-.574-1.311zm-5.378 11.378c-2.089-1.321-3.036-4.005-2.122-6.422.915-2.417 3.389-3.769 5.814-3.333l-3.692 9.755zM117.289 173.537c.189.475.685.688 1.108.479l3.758-1.861c.423-.211.611-.766.422-1.237-.189-.476-.686-.688-1.109-.479l-3.758 1.863c-.423.208-.611.762-.421 1.235zM112.517 171.609c.47-.201.679-.732.469-1.188l-1.873-4.045c-.21-.455-.762-.662-1.231-.461-.47.201-.68.733-.469 1.188l1.872 4.045c.21.457.762.663 1.232.461zM115.326 152.452c.232-.231.365-.554.365-.884 0-.332-.132-.652-.365-.887-.235-.233-.555-.365-.885-.365-.33 0-.652.132-.882.365-.235.231-.368.555-.368.887 0 .33.132.654.365.884.233.235.555.368.885.368.33 0 .65-.132.885-.368zM122.942 146.143v-17.119c0-.555-.448-1.002-1-1.002h-27.5c-.553 0-1 .447-1 1.002v17.119l-4.708 4.717c-.286.287-.372.719-.217 1.093.154.375.52.618.924.618h21.25c.552 0 1-.447 1-1.002 0-.553-.448-1.002-1-1.002h-18.836l3-3.006h26.671l3 3.006h-6.335c-.553 0-1 .449-1 1.002 0 .555.447 1.002 1 1.002h8.75c.405 0 .769-.243.924-.617.155-.374.069-.807-.216-1.092l-4.707-4.719zm-2.001-.586h-25.5v-15.531h25.5v15.531zM109.527 176.328l-3.758 1.678c-.423.188-.612.688-.422 1.113.189.426.686.619 1.108.431l3.758-1.677c.423-.188.611-.688.422-1.113s-.686-.619-1.108-.432zM126.107 177.547c-.269.122-.497.299-.694.504-.583-1.219-2.02-1.76-3.254-1.199-.382.172-.692.438-.936.75-.7-.526-1.65-.677-2.506-.289-.266.121-.494.289-.694.482l-1.561-3.57c-.557-1.274-2.036-1.848-3.297-1.275-1.26.57-1.832 2.072-1.274 3.349l4.165 9.527c-1.274.653-1.972 1.868-1.733 3.213.315 1.769 1.227 3.509 2.709 5.176 1.118 1.255 2.866 2.231 5.344 2.989.199.061.402.042.578-.038.217-.099.39-.288.462-.539.13-.453-.125-.933-.569-1.067-2.146-.654-3.687-1.494-4.578-2.496-1.285-1.444-2.037-2.857-2.298-4.322-.106-.6.256-1.062.768-1.348l.616 1.407c.189.435.686.63 1.108.438.423-.192.612-.698.422-1.133l-5.465-12.502c-.179-.41.014-.896.43-1.086.416-.188.901-.01 1.08.4l3.882 8.88c.19.435.686.63 1.108.438.423-.192.612-.699.422-1.133l-1.371-3.138c-.179-.409.014-.896.43-1.085s.901-.009 1.08.4l1.56 3.566c.189.434.686.629 1.108.438.423-.192.611-.699.422-1.132l-1.159-2.649c-.179-.41.014-.896.43-1.086.417-.188.9-.01 1.08.401l1.468 3.355c.189.434.686.631 1.108.438.423-.191.612-.697.422-1.131l-.455-1.041c-.233-.533-.084-1.142.325-1.326.409-.186.952.107 1.186.643l.027.057c.035.064 3.4 6.527 3.357 12.205-.004.474.369.862.833.869.124.002.242-.025.348-.074.29-.131.493-.428.497-.772.043-5.981-3.265-12.472-3.545-13.008-.622-1.387-2.135-2.054-3.386-1.486zM64.201 132.461c5.92 2.305 8.897 9.037 6.637 15.008-.198.523.06 1.109.575 1.311.516.201 1.094-.061 1.292-.582 2.656-7.016-.838-14.924-7.788-17.629-6.95-2.705-14.764.802-17.419 7.815-.198.522.06 1.109.575 1.31.516.201 1.094-.06 1.292-.582 2.261-5.971 8.916-8.956 14.836-6.651zM67.443 148.658c-.516-.2-1.094.061-1.292.584l-4.479 11.834c-.198.523.059 1.109.575 1.311 3.732 1.453 7.934-.445 9.366-4.229 1.433-3.785-.438-8.047-4.17-9.5zm2.302 8.774c-.915 2.416-3.389 3.769-5.814 3.332l3.693-9.756c2.089 1.323 3.036 4.006 2.121 6.424zM99.134 173.079h-32.874c-.559 0-1.012.448-1.012 1.002v20.04c0 .555.453 1.002 1.012 1.002h15.425v3.007h-5.31c-.559 0-1.011.448-1.011 1.002s.453 1.002 1.011 1.002h12.644c.559 0 1.011-.448 1.011-1.002s-.453-1.002-1.011-1.002h-5.311v-3.007h1.517c.559 0 1.012-.447 1.012-1.002 0-.553-.453-1.002-1.012-1.002h-17.953v-18.036h30.851v18.036h-5.311c-.559 0-1.012.449-1.012 1.002 0 .555.453 1.002 1.012 1.002h6.322c.559 0 1.012-.447 1.012-1.002v-20.04c-.001-.554-.454-1.002-1.012-1.002zM109.382 174.618c.231.094.476.08.685-.017.209-.099.382-.277.47-.521.176-.483-.056-1.026-.518-1.214l-4.106-1.662c-.462-.188-.979.053-1.153.536-.176.483.055 1.026.517 1.213l4.105 1.665zM44.782 25.852h-5.257c-.566 0-1.051.481-1.051 1.042s.444 1.042 1.051 1.042h5.257c.566 0 1.051-.481 1.051-1.042s-.485-1.042-1.051-1.042zM44.782 29.739h-5.257c-.566 0-1.051.479-1.051 1.042 0 .561.444 1.002 1.051 1.002h5.257c.566 0 1.051-.481 1.051-1.042 0-.562-.445-1.002-1.051-1.002zM44.782 33.627h-5.257c-.566 0-1.051.48-1.051 1.042 0 .601.444 1.042 1.051 1.042h5.257c.566 0 1.051-.48 1.051-1.042s-.485-1.042-1.051-1.042zM44.782 21.923h-5.257c-.566 0-1.051.481-1.051 1.042s.444 1.042 1.051 1.042h5.257c.566 0 1.051-.481 1.051-1.042s-.485-1.042-1.051-1.042zM150.027 47.82l2.475-.521c.547-.115.896-.646.78-1.189-.116-.541-.654-.887-1.201-.771l-2.476.521c-.546.115-.896.647-.779 1.188.117.541.654.888 1.201.772zM35.562 9.899h-10.555c-.566 0-1.052.481-1.052 1.042v26.333c.001.602.486 1.043 1.052 1.123h10.555c.566 0 1.051-.481 1.051-1.043v-26.413c0-.561-.485-1.042-1.051-1.042zm-1.051 26.333h-8.452v-24.25h8.452v24.25zM174.826 85.855c.553 0 1-.447 1-1.002v-.25h5.5v.25c0 .555.447 1.002 1 1.002s1-.447 1-1.002v-1.252c0-.554-.447-1.002-1-1.002h-7.5c-.553 0-1 .448-1 1.002v1.252c0 .555.447 1.002 1 1.002zM30.305 33.145c2.022 0 3.68-1.644 3.68-3.646 0-2.084-1.658-3.687-3.68-3.647-2.022 0-3.68 1.644-3.68 3.647s1.658 3.646 3.68 3.646zm0-5.209c.849 0 1.577.681 1.577 1.563 0 .801-.728 1.522-1.577 1.563-.849 0-1.577-.682-1.577-1.563 0-.842.688-1.563 1.577-1.563zM157.786 49.004c-.116-.541-.654-.886-1.201-.771l-13.616 2.865c-3.958.834-6.495 4.698-5.653 8.616.841 3.918 4.746 6.429 8.705 5.597 3.939-.83 6.47-4.66 5.665-8.56l-.01-.058c-.201-.936-.581-1.812-1.133-2.604-.316-.457-.946-.571-1.408-.258-.46.313-.578.937-.261 1.394.39.561.662 1.178.81 1.836l.01.049c.609 2.838-1.228 5.637-4.094 6.24-2.866.604-5.694-1.215-6.304-4.053-.609-2.837 1.228-5.636 4.095-6.238l12.625-2.658 3 13.968-25.251 5.312-3-13.967 5.199-1.094c.347-.073.631-.321.747-.654l2.211-6.371 6.866-1.443c.547-.115.896-.647.78-1.188-.116-.541-.653-.887-1.201-.772l-7.426 1.563c-.348.073-.632.321-.747.654l-2.211 6.37-5.628 1.185c-.546.115-.896.646-.779 1.188l3.42 15.927c.116.541.654.887 1.201.771l27.231-5.729c.545-.114.894-.646.778-1.188l-3.42-15.929zM148.723 92.667c0 .56.399 1.015.894 1.015h4.388c.494 0 .894-.455.894-1.015s-.4-1.015-.894-1.015h-4.388c-.495 0-.894.455-.894 1.015zM181.77 101.557c-3.125 2.088-6.254.088-6.393-.002-.457-.306-1.076-.18-1.382.279-.306.46-.183 1.082.276 1.391.117.076 1.975 1.289 4.446 1.289 1.275 0 2.716-.322 4.163-1.289.459-.309.584-.931.276-1.391s-.926-.585-1.386-.277zM184.826 87.609h-12.5c-3.309 0-6 2.697-6 6.013v10.021c0 2.975 2.167 5.448 5 5.928v2.84c0 .554.447 1.002 1 1.002h12.5c.553 0 1-.448 1-1.002v-2.842c2.834-.479 5-2.952 5-5.926v-10.021c0-3.315-2.691-6.013-6-6.013zm4 16.034c0 2.211-1.794 4.008-4 4.008h-8.75c-.553 0-1 .449-1 1.002 0 .555.447 1.002 1 1.002h7.75v1.755h-10.5v-2.757c0-.553-.447-1.002-1-1.002-2.205 0-4-1.797-4-4.008v-10.021c0-2.21 1.795-4.008 4-4.008h12.5c2.206 0 4 1.798 4 4.008v10.021zM155.173 99.545c-.301 0-.585.066-.854.172-.048-1.354-1.167-2.441-2.546-2.441-.427 0-.824.115-1.179.299-.438-.772-1.264-1.303-2.22-1.303-.297 0-.579.061-.844.153v-3.903c0-1.396-1.146-2.529-2.555-2.529-1.409 0-2.555 1.134-2.555 2.529v10.42h.001c-1.455.068-2.602.891-2.927 2.215-.427 1.742-.287 3.71.417 5.845.53 1.608 1.762 3.224 3.766 4.94.161.137.358.205.555.205.242 0 .482-.104.651-.303.307-.359.264-.902-.095-1.21-1.735-1.483-2.829-2.89-3.252-4.172-.61-1.851-.734-3.45-.381-4.896.145-.59.671-.861 1.266-.912v1.539c0 .475.383.858.855.858.473 0 .856-.385.856-.858v-13.672c0-.447.378-.812.844-.812s.844.364.844.812v9.711c0 .475.383.858.855.858.473 0 .856-.385.856-.858v-3.431c0-.448.378-.812.844-.812.465 0 .844.363.844.812v3.9c0 .475.383.858.856.858s.855-.385.855-.858v-2.896c0-.449.378-.813.843-.813s.844.364.844.813v3.67c0 .475.383.858.856.858s.855-.385.855-.858v-1.137c0-.584.388-1.076.845-1.076s.844.492.844 1.076l.002.062c.006.072.509 7.363-1.845 12.527-.197.432-.008.939.422 1.137.115.054.237.078.355.078.324 0 .634-.188.779-.5 2.48-5.442 2.039-12.731 1.998-13.34-.016-1.521-1.156-2.757-2.555-2.757zM141.128 90.324c.214 0 .429-.09.593-.268.327-.355.327-.932 0-1.287l-2.909-3.162c-.328-.355-.859-.355-1.185 0-.327.355-.327.933 0 1.287l2.909 3.162c.164.178.378.268.592.268zM150.087 85.607l-2.909 3.162c-.328.355-.328.932 0 1.287.165.178.38.268.593.268.214 0 .429-.09.592-.268l2.909-3.162c.328-.354.328-.932 0-1.287s-.858-.355-1.185 0zM59.3 9.899h-10.555c-.566 0-1.051.481-1.051 1.042v26.333c0 .562.485 1.043 1.051 1.043h10.555c.566 0 1.051-.481 1.051-1.043v-26.333c0-.561-.485-1.042-1.051-1.042zm-1.052 26.413h-8.452v-24.33h8.452v24.33zM140.989 92.667c0-.56-.375-1.015-.837-1.015h-4.114c-.463 0-.838.455-.838 1.015 0 .562.375 1.015.838 1.015h4.114c.462 0 .837-.455.837-1.015zM54.002 33.145c2.022 0 3.68-1.644 3.68-3.646s-1.658-3.647-3.68-3.647-3.68 1.644-3.68 3.647c0 1.963 1.658 3.646 3.68 3.646zm0-5.209c.849 0 1.577.681 1.577 1.563.001.841-.727 1.563-1.577 1.563s-1.577-.682-1.577-1.563.728-1.563 1.577-1.563zM146.08 87.703v-4.152c0-.467-.451-.845-1.005-.845-.555 0-1.005.378-1.005.845v4.152c-.001.466.45.845 1.005.845.555 0 1.005-.378 1.005-.845z"/><circle fill="#900000" cx="175.42" cy="97.46" r="1.334"/><circle fill="#900000" cx="181.592" cy="97.46" r="1.334"/><circle fill="#900000" cx="144.746" cy="58.502" r="1.334"/><circle fill="#900000" cx="54.002" cy="16.127" r="1.334"/><circle fill="#900000" cx="54.002" cy="20.033" r="1.334"/><circle fill="#900000" cx="30.284" cy="16.127" r="1.334"/><circle fill="#900000" cx="30.284" cy="20.033" r="1.334"/><circle fill="#900000" cx="97.578" cy="17.817" r="1.16"/><circle fill="#900000" cx="99.46" cy="21.305" r="1.16"/><circle fill="#900000" cx="100.411" cy="18.555" r="1.16"/><circle fill="#900000" cx="96.793" cy="20.522" r="1.16"/><circle fill="#900000" cx="130.619" cy="15.625" r="1.007"/><circle fill="#900000" cx="133.275" cy="15.016" r="1.007"/><circle fill="#900000" cx="127.962" cy="16.405" r="1.007"/><circle fill="#900000" cx="6.285" cy="70.647" r="1.249"/><circle fill="#900000" cx="119.8" cy="100.588" r="1.16"/><circle fill="#900000" cx="118.64" cy="105.561" r="1.16"/><circle fill="#900000" cx="121.798" cy="103.674" r="1.16"/><circle fill="#900000" cx="117.038" cy="102.592" r="1.16"/><circle fill="#900000" cx="43.693" cy="176.767" r="1.16"/><circle fill="#900000" cx="45.045" cy="181.421" r="1.16"/><circle fill="#900000" cx="46.802" cy="178.525" r="1.16"/><circle fill="#900000" cx="42.091" cy="179.791" r="1.16"/><circle fill="#900000" cx="88.8" cy="194.092" r="1.16"/><circle fill="#900000" cx="153.482" cy="196.098" r="1.16"/></svg>